<!--?xml version="1.0" encoding="utf-8"?-->
<!-- Generator: Adobe Illustrator 22.0.0, SVG Export Plug-In . SVG Version: 6.00 Build 0)  -->
<svg version="1.1" id="Layer_1" xmlns="http://www.w3.org/2000/svg" xmlns:xlink="http://www.w3.org/1999/xlink" x="0px" y="0px" viewBox="0 0 512 512" style="" xml:space="preserve">
<style type="text/css">
	.st0{fill:none;stroke:#FFF;stroke-width:12;stroke-miterlimit:10;}
</style>
<g>
	<path class="st0 FPutMBym_0" d="M25.1,288.6c-3.3-16.9-3.2-33.8-1.8-50.7c5.2-65.6,31.9-121.2,80.5-165.8c36.4-33.4,79.4-53.5,128.3-61.1
		c1.3-0.2,2.6-0.1,3.9-0.1c0.5,0.5,1.3,0.5,2,0.5c0.5,0,1.1,0.1,1.6,0c-0.7-0.2-1.4,0-1.7-0.8c6.2-1.6,12.6-1.5,18.9-2.1
		c2.3-0.2,2.9,0.7,2.9,2.8c0,9.1,0.1,18.4,0.3,27.5c0.1,2.8-2.1,3.2-3.7,4.2c-2.8,1.8-7,2.2-7.7,6.5c-0.5-0.4-1.1-1-0.2-1.6
		c-0.5,0.2-0.7,0.5-0.7,1.1c0.1,1.2-0.4,2.5,0.5,3.6c-1.2,19-2.4,38-3.4,57c-0.1,2.5-1.5,3-3.5,3.6c-10,2.5-20.1,4.9-30,7.8
		c-3.5,1-4.4-1.2-5.9-2.9c-12.4-14.9-24.9-29.8-37.1-44.9c-2.6-3.3-4.6-4.1-8.2-1.4c-4.6,3.6-12.6,5-13.7,9.8c-1,4.2,4,10,6.5,15
		c6.6,13.4,13.2,26.7,19.9,39.9c1.5,2.9,1.2,4.5-1.2,6.6c-8.2,7.6-16.1,15.3-23.9,23.3c-2.4,2.4-4.2,2.7-7.4,1.5
		c-17.5-6.9-35.2-13.3-52.8-20.1c-3.8-1.4-6.2-1.6-7.8,2.7c-1.5,4.1-6.5,8.1-5.4,11.9c1,3.4,6.4,5.3,9.9,7.8
		c12.8,9.2,25.8,18.5,38.7,27.5c2.8,2,3.9,3.6,2.7,7.3c-3,9.5-5.7,19.1-8.3,28.7c-0.7,2.4-1.6,3.9-4.5,4.1
		c-5.2,0.3-10.4,1.1-15.7,1.6c-0.8-0.2,0.3-0.1-0.4-0.3c-0.9-0.3-1.7-0.1-2.6-0.3c0.7,0.4,1.6,0,2.1,0.8c-2.3,1.2-4.7,1.2-7.1,1
		c-1.5-1.1-3.3-0.2-5.4-0.8c1.5,0.5,2.8-0.1,3.6,1c-9.5,1.4-18.9,2.9-28.5,4.1c-3,0.3-4,1.3-4.1,4.5c-0.4,11.6-0.5,11.6,11,14.1
		c14.9,3.2,29.8,6.4,44.8,9.4c3.5,0.7,5,2.1,5.8,5.5c1.7,9,3.7,18.1,6,27.1c1,3.9,0.2,6-3.2,8.2c-14.3,9.2-28.2,18.9-42.4,28.2
		c-3.7,2.4-3.6,4-1.3,7.4c6,8.5,5.8,8.6,15.8,5.7c14.3-4.2,28.6-8.4,42.8-12.8c3.3-1,5.1-0.4,7.2,2.1c7.1,8.6,14.4,17,21.8,25.3
		c2.1,2.4,2.2,4.1,0.8,6.9c-7.5,14.6-14.7,29.3-22.2,43.8c-1.4,2.8-1.3,4.5,1.3,6.6c9.4,7.8,9.4,8.1,18.4-0.1
		c11-9.8,22-19.6,32.9-29.5c2.5-2.3,4.6-2.9,8.1-1.7c11.4,3.9,23,7.5,34.5,10.9c3.7,1.1,4.9,2.8,5.1,6.6c0.7,14.1,2.1,28.3,2.6,42.4
		c0.2,5.2,1.5,9,6,11.7c5.1,3.2,7.1,7.6,6.9,13.7c-0.2,6.2,0.3,12.4,0.9,18.6c0.2,2.9-0.4,4.2-3.6,3.7c-5.2-1-10.6,0-15.7-1.8
		c1.2-1.2,2.6-0.5,2.9-0.5c-0.5,0.2-2.3-0.7-3.8,0.4c-19.5-1.5-38.3-6.2-56.4-13.6C93.7,451.9,42,386.6,25,293.4
		c-0.2-1.3-0.1-2.6-0.1-3.9c1.2-1.4,0.1-3.3,0.8-4.8c0-0.8-0.7-0.2-0.7,0C25.9,286,26.2,287.4,25.1,288.6z"></path>
	<path class="st0 FPutMBym_1" d="M269.8,125.3c-1.1-4.2-0.7-8.6-0.8-12.9c-0.5-21.9-0.9-43.8-1.6-65.7c-0.2-5.5,1.8-6.4,6.5-5.4
		c7.3,1.5,11.9,6.4,15.2,12.5c6.7,12.1,9.4,25.5,11.3,38.8c1.3,9.1,2.2,18.3,3.4,28c2.7-1.5,3.6-4,5-6.1c9.5-13.5,19-26.8,32-37.2
		c3.8-3,8.1-5.8,12.7-7.3C364.9,66,375,71,378.8,82.3c3.6,10.9,1.7,21.6-0.5,32.4c-3.2,14.6-8.6,28.5-14.4,42.2
		c-0.7,1.6-1.4,3.4-2.5,6.3c5.8-2.7,10.4-4.9,15.1-7.1c16.8-7.5,33.6-14.5,52-16.9c7.2-1,14.3-0.9,21.2,1.4
		c11,3.6,14.3,9.6,11.3,20.8c-2,7.5-6.3,13.6-11.4,19.3c-13.1,14.5-28.9,25.2-45.3,35.6c-2.2,1.4-4.5,2.7-7.8,4.9
		c9.4,0.4,17.5,0.8,25.6,1.3c14,0.9,27.7,2.8,40.9,8.1c10.7,4.1,19.8,10.2,25.1,20.8c1.5,3,1.8,5.8,0.9,9.1
		c-3.8,12.6-13.1,19-25,22.1c-16.1,4-32.5,4-49,4.7c-4.5,0.2-9,0-14.1,0c1.2,2.8,3.3,3.5,4.8,4.5c16,10.8,31.8,21.9,44.5,36.6
		c3.7,4.2,7.1,8.8,9.2,14.1c5.3,13.3-1.4,25.7-15.6,28.7c-8.4,1.7-16.5,0.3-24.6-1.7c-16.5-4.2-31.8-11.6-46.9-19.7
		c-1.8-1-3.7-1.8-5.8-3c-0.5,2.5,1,4.1,1.8,5.9c8.9,19.1,17.9,38.3,22.2,59.2c0.8,3.7,1.3,7.5,1.4,11.2c0.3,15.1-11.6,24.2-26.5,20
		c-9.9-2.7-17.8-8.9-25.1-15.8c-12.5-11.6-23-25-33-38.7c-1.1-1.4-2.2-2.8-4.2-5.5c0.4,16.1,0.8,30.6,0,45
		c-0.7,10.6-1.8,21.1-5.9,31c-3.4,8.3-8.8,14.5-18.2,16c-4.8,0.8-8.9,0-12.3-3.8c-0.8-2.1-0.3-4.1-0.3-6.2c0-31.9,0-63.9,0-95.7
		c0-8.1,0-8.1,8.1-9.2c2.2-0.7,4.6-0.4,6.7-1.2c0.9-0.2,1.7-0.4,2.7-0.4c20.7-2.5,39.3-9.9,55.5-23.3c1.1-0.9,2.1-1.6,3.4-1.8
		c3.3,0.3,2.8-2.7,4-4.2c5.2-5.9,10.9-11.4,15.2-18.2c17-26.3,22-54.7,12.2-84.4c-11.2-33.9-35.7-54.6-69.7-64.4
		c-3.8-1.1-7.6-2.2-11.6-2.5c-0.9-0.1-1.7-0.2-2.7-0.4c-3.2-1.5-7.5,1.1-9.9-2.8c0.2-0.7,0.8-0.8,1.3-0.9c-0.8-0.2-1.4,0.2-2.2,0.4
		c-7.2,1.4-8.7,0.1-8.3-7.1c0.5-11.2,0.1-22.4,1-33.5c0.1,3.3,0,6.5-0.2,9.8C271,125.6,270.5,125.7,269.8,125.3z"></path>
	<path class="st0 FPutMBym_2" d="M281.7,360c-2,0.4-4,0.8-6,1.2c-1.1,0.4-2.2,0.3-3.4,0.2c-1.8-0.8-4,0.1-5.7-1.5c0.4-30.9,0.9-61.9,1.4-92.8
		c0.5-34.5,1.3-69.1,2-103.6c0-2.4,0.2-4.9,0.4-7.3c3.2-1.1,6.3-1.1,9.5,0c3.5,1.5,7.4,0.2,10.9,2c-0.2,0.4-0.7,0.7-1.1,0.7
		c1.1,0.1,2.1,0.3,3-0.4c24.2,3.8,44.3,14.6,61.7,32.3c28.9,29.3,33.5,79.3,12.3,115.2c-5.4,9.1-12,17.4-19.7,24.6
		c-0.9,1.5-1.7,2.9-3.6,3.5c-6.6,5.4-13.6,10.4-21.3,14.3c-12.2,6-24.8,10.6-38.4,11.6c-1.5-1.1-3.3-0.2-5.2-0.8
		C279.6,359.5,280.9,358.8,281.7,360z"></path>
</g>
<style data-made-with="vivus-instant">.FPutMBym_0{stroke-dasharray:1943 1945;stroke-dashoffset:1944;animation:FPutMBym_draw_0 13200ms linear 0ms infinite,FPutMBym_fade 13200ms linear 0ms infinite;}.FPutMBym_1{stroke-dasharray:1810 1812;stroke-dashoffset:1811;animation:FPutMBym_draw_1 13200ms linear 0ms infinite,FPutMBym_fade 13200ms linear 0ms infinite;}.FPutMBym_2{stroke-dasharray:552 554;stroke-dashoffset:553;animation:FPutMBym_draw_2 13200ms linear 0ms infinite,FPutMBym_fade 13200ms linear 0ms infinite;}@keyframes FPutMBym_draw{100%{stroke-dashoffset:0;}}@keyframes FPutMBym_fade{0%{stroke-opacity:1;}96.96969696969697%{stroke-opacity:1;}100%{stroke-opacity:0;}}@keyframes FPutMBym_draw_0{6.0606060606060606%{stroke-dashoffset: 1944}12.897780028699248%{ stroke-dashoffset: 0;}100%{ stroke-dashoffset: 0;}}@keyframes FPutMBym_draw_1{12.897780028699248%{stroke-dashoffset: 1811}19.26718437860499%{ stroke-dashoffset: 0;}100%{ stroke-dashoffset: 0;}}@keyframes FPutMBym_draw_2{19.26718437860499%{stroke-dashoffset: 553}21.21212121212121%{ stroke-dashoffset: 0;}100%{ stroke-dashoffset: 0;}}</style></svg>
