<!--?xml version="1.0" encoding="utf-8"?-->
<!-- Generator: Adobe Illustrator 22.0.0, SVG Export Plug-In . SVG Version: 6.00 Build 0)  -->
<svg version="1.1" id="Layer_1" xmlns="http://www.w3.org/2000/svg" xmlns:xlink="http://www.w3.org/1999/xlink" x="0px" y="0px" viewBox="0 0 200 200" style="" xml:space="preserve">
<style type="text/css">
	.st0{fill:none;stroke:#FFF;stroke-width:3;stroke-miterlimit:10;}
	.st1{fill:none;stroke:#000;stroke-miterlimit:10;}
	.st2{fill:none;stroke:#FFF;stroke-width:1.3;stroke-miterlimit:10;}
	.loading {fill: #FFF; }
</style>
<g class="loading">
	<path d="M83.3,112.1v5.5h2.8v1.1H82v-6.6H83.3z"/>
	<path d="M93.7,115.4c0,1.9-1.5,3.4-3.5,3.4s-3.5-1.5-3.5-3.4s1.5-3.3,3.5-3.3S93.7,113.5,93.7,115.4z M88,115.4
		c0,1.2,1,2.2,2.2,2.2s2.2-1,2.2-2.2s-1-2.2-2.2-2.2S88,114.2,88,115.4z"/>
	<path d="M98.9,117.3h-3.2l-0.6,1.4h-1.3l2.9-6.6H98l2.9,6.6h-1.4L98.9,117.3z M98.5,116.2l-1.2-2.8l-1.2,2.8H98.5z"/>
	<path d="M107.9,115.4c0,1.9-1.5,3.3-3.5,3.3h-2.7v-6.6h2.7C106.4,112.1,107.9,113.5,107.9,115.4z M106.6,115.4
		c0-1.3-0.9-2.2-2.2-2.2H103v4.4h1.5C105.7,117.6,106.6,116.7,106.6,115.4z"/>
	<path d="M110.3,112.1v6.6H109v-6.6H110.3z"/>
	<path d="M113.1,112.1l3.4,4.5v-4.5h1.2v6.6h-1.2l-3.4-4.5v4.5h-1.2v-6.6H113.1z"/>
	<path d="M123.8,115.4h1.1v2.5c-0.7,0.5-1.7,0.9-2.6,0.9c-2,0-3.5-1.5-3.5-3.4s1.5-3.3,3.6-3.3c1,0,1.9,0.4,2.6,0.9l-0.7,0.9
		c-0.5-0.5-1.2-0.7-1.9-0.7c-1.3,0-2.3,1-2.3,2.2c0,1.3,1,2.2,2.3,2.2c0.5,0,1-0.2,1.4-0.4V115.4z"/>
</g>
<g>
	<path class="st0 syajHROf_0" d="M58.4,106.2c0.1,0.1,0.1,0.2,0.1,0.4c0,0.2-0.1,0.4-0.2,0.5c-0.1,0.2-0.3,0.2-0.6,0.2c-0.2,0-0.3,0-0.4-0.1
		c-0.1-0.1-0.2-0.2-0.3-0.3c-0.3-0.5-0.5-1.2-0.7-1.9c-0.2-0.8-0.4-1.6-0.5-2.6s-0.3-2-0.4-3.1c-0.1-1.1-0.2-2.2-0.2-3.4
		c-1,0.1-2.2,0.3-3.5,0.5s-2.8,0.4-4.4,0.6c-1.2,0.2-2.4,0.3-3.6,0.4c-3,3.2-6.1,5.7-9.4,7.4c-3.3,1.7-6.6,2.5-9.9,2.5
		c-1.5,0-2.7-0.1-3.8-0.4c-1.1-0.3-2-0.6-2.7-1s-1.2-0.7-1.6-1s-0.5-0.5-0.6-0.5c-0.1-0.1-0.2-0.3-0.2-0.5s0.1-0.4,0.2-0.6
		c0.2-0.2,0.3-0.2,0.5-0.2s0.4,0.1,0.6,0.2c0,0,0.2,0.2,0.5,0.4c0.3,0.3,0.8,0.5,1.4,0.8s1.4,0.6,2.3,0.8c0.9,0.2,2,0.4,3.3,0.4
		c1.7,0,3.4-0.2,5-0.7c1.6-0.5,3.1-1.1,4.5-1.8s2.7-1.6,4-2.6c1.2-1,2.3-2,3.3-3c-1,0.1-2,0.1-2.9,0.2c-1,0-1.9,0.1-2.9,0.1
		c-1.9,0-3.6-0.1-5.3-0.3s-3.2-0.6-4.4-1.1c-1.3-0.5-2.3-1.1-3.1-2s-1.1-1.8-1.1-3.1c0-0.6,0.1-1.1,0.3-1.7s0.5-1.1,0.8-1.5
		c0.3-0.5,0.7-0.8,1-1.1s0.6-0.4,0.9-0.4c0.2,0,0.4,0.1,0.5,0.2s0.2,0.3,0.2,0.6c0,0.1,0,0.2-0.1,0.4s-0.1,0.2-0.2,0.3
		c0,0-0.1,0.1-0.4,0.3c-0.2,0.2-0.4,0.4-0.7,0.7c-0.2,0.3-0.5,0.6-0.6,1c-0.2,0.4-0.3,0.8-0.3,1.3c0,0.8,0.3,1.5,0.8,2.1
		s1.3,1.1,2.4,1.5c1,0.4,2.3,0.7,3.9,0.9s3.3,0.3,5.2,0.3c1.1,0,2.3,0,3.6-0.1c1.2-0.1,2.6-0.2,4-0.3c0.7-0.7,1.3-1.4,1.8-2.1
		s1-1.2,1.3-1.7c0.6-0.8,1.2-1.7,1.9-2.7s1.3-1.9,1.9-2.9s1.3-2,1.9-2.9s1.2-1.9,1.7-2.7s1-1.6,1.5-2.3s0.8-1.3,1.1-1.7
		c0.1-0.4,0.2-0.7,0.4-1s0.4-0.5,0.8-0.5c0.2,0,0.4,0.1,0.6,0.3c0.2,0.2,0.3,0.4,0.3,0.7c0,0.2-0.1,0.4-0.2,0.6
		c-0.1,0.2-0.3,0.4-0.4,0.6c0,0.3-0.1,0.8-0.2,1.7c-0.1,0.9-0.2,1.9-0.3,3.2s-0.2,2.6-0.2,4.1c-0.1,1.5-0.1,3-0.1,4.5
		c0,0.6,0,1.1,0,1.7s0,1.1,0,1.7c2.1-0.3,3.6-0.4,4.6-0.6s1.5-0.2,1.5-0.2c0.2,0,0.4,0.1,0.5,0.2c0.2,0.1,0.3,0.3,0.3,0.6
		c0,0.2-0.1,0.4-0.2,0.5s-0.3,0.2-0.5,0.3c-0.2,0-0.5,0.1-0.9,0.1c-0.3,0-0.7,0.1-1.2,0.1c-0.5,0.1-1.1,0.1-1.7,0.2
		c-0.7,0.1-1.4,0.2-2.3,0.3c0,1.1,0.1,2.2,0.2,3.3c0.1,1,0.2,2,0.3,2.9s0.3,1.7,0.5,2.4C58,105.2,58.2,105.8,58.4,106.2z M47.1,95.5
		c1.6-0.2,3.1-0.4,4.5-0.6c1.3-0.2,2.6-0.3,3.6-0.5c0-0.6,0-1.2,0-1.8c0-0.6,0-1.2,0-1.8c0-2,0-3.8,0.1-5.6c0.1-1.8,0.2-3.3,0.3-4.7
		c-0.6,0.9-1.2,1.8-1.8,2.9s-1.4,2.1-2.1,3.2c-0.7,1.1-1.5,2.2-2.2,3.3c-0.7,1.1-1.4,2.1-2.1,3c-0.3,0.5-0.7,0.9-1,1.4
		c-0.3,0.4-0.7,0.9-1,1.3c0.3,0,0.6-0.1,0.9-0.1C46.5,95.6,46.8,95.5,47.1,95.5z"></path>
	<path class="st1 syajHROf_1" d="M58.4,106.2c0.1,0.1,0.1,0.2,0.1,0.4c0,0.2-0.1,0.4-0.2,0.5c-0.1,0.2-0.3,0.2-0.6,0.2c-0.2,0-0.3,0-0.4-0.1
		c-0.1-0.1-0.2-0.2-0.3-0.3c-0.3-0.5-0.5-1.2-0.7-1.9c-0.2-0.8-0.4-1.6-0.5-2.6s-0.3-2-0.4-3.1c-0.1-1.1-0.2-2.2-0.2-3.4
		c-1,0.1-2.2,0.3-3.5,0.5s-2.8,0.4-4.4,0.6c-1.2,0.2-2.4,0.3-3.6,0.4c-3,3.2-6.1,5.7-9.4,7.4c-3.3,1.7-6.6,2.5-9.9,2.5
		c-1.5,0-2.7-0.1-3.8-0.4c-1.1-0.3-2-0.6-2.7-1s-1.2-0.7-1.6-1s-0.5-0.5-0.6-0.5c-0.1-0.1-0.2-0.3-0.2-0.5s0.1-0.4,0.2-0.6
		c0.2-0.2,0.3-0.2,0.5-0.2s0.4,0.1,0.6,0.2c0,0,0.2,0.2,0.5,0.4c0.3,0.3,0.8,0.5,1.4,0.8s1.4,0.6,2.3,0.8c0.9,0.2,2,0.4,3.3,0.4
		c1.7,0,3.4-0.2,5-0.7c1.6-0.5,3.1-1.1,4.5-1.8s2.7-1.6,4-2.6c1.2-1,2.3-2,3.3-3c-1,0.1-2,0.1-2.9,0.2c-1,0-1.9,0.1-2.9,0.1
		c-1.9,0-3.6-0.1-5.3-0.3s-3.2-0.6-4.4-1.1c-1.3-0.5-2.3-1.1-3.1-2s-1.1-1.8-1.1-3.1c0-0.6,0.1-1.1,0.3-1.7s0.5-1.1,0.8-1.5
		c0.3-0.5,0.7-0.8,1-1.1s0.6-0.4,0.9-0.4c0.2,0,0.4,0.1,0.5,0.2s0.2,0.3,0.2,0.6c0,0.1,0,0.2-0.1,0.4s-0.1,0.2-0.2,0.3
		c0,0-0.1,0.1-0.4,0.3c-0.2,0.2-0.4,0.4-0.7,0.7c-0.2,0.3-0.5,0.6-0.6,1c-0.2,0.4-0.3,0.8-0.3,1.3c0,0.8,0.3,1.5,0.8,2.1
		s1.3,1.1,2.4,1.5c1,0.4,2.3,0.7,3.9,0.9s3.3,0.3,5.2,0.3c1.1,0,2.3,0,3.6-0.1c1.2-0.1,2.6-0.2,4-0.3c0.7-0.7,1.3-1.4,1.8-2.1
		s1-1.2,1.3-1.7c0.6-0.8,1.2-1.7,1.9-2.7s1.3-1.9,1.9-2.9s1.3-2,1.9-2.9s1.2-1.9,1.7-2.7s1-1.6,1.5-2.3s0.8-1.3,1.1-1.7
		c0.1-0.4,0.2-0.7,0.4-1s0.4-0.5,0.8-0.5c0.2,0,0.4,0.1,0.6,0.3c0.2,0.2,0.3,0.4,0.3,0.7c0,0.2-0.1,0.4-0.2,0.6
		c-0.1,0.2-0.3,0.4-0.4,0.6c0,0.3-0.1,0.8-0.2,1.7c-0.1,0.9-0.2,1.9-0.3,3.2s-0.2,2.6-0.2,4.1c-0.1,1.5-0.1,3-0.1,4.5
		c0,0.6,0,1.1,0,1.7s0,1.1,0,1.7c2.1-0.3,3.6-0.4,4.6-0.6s1.5-0.2,1.5-0.2c0.2,0,0.4,0.1,0.5,0.2c0.2,0.1,0.3,0.3,0.3,0.6
		c0,0.2-0.1,0.4-0.2,0.5s-0.3,0.2-0.5,0.3c-0.2,0-0.5,0.1-0.9,0.1c-0.3,0-0.7,0.1-1.2,0.1c-0.5,0.1-1.1,0.1-1.7,0.2
		c-0.7,0.1-1.4,0.2-2.3,0.3c0,1.1,0.1,2.2,0.2,3.3c0.1,1,0.2,2,0.3,2.9s0.3,1.7,0.5,2.4C58,105.2,58.2,105.8,58.4,106.2z M47.1,95.5
		c1.6-0.2,3.1-0.4,4.5-0.6c1.3-0.2,2.6-0.3,3.6-0.5c0-0.6,0-1.2,0-1.8c0-0.6,0-1.2,0-1.8c0-2,0-3.8,0.1-5.6c0.1-1.8,0.2-3.3,0.3-4.7
		c-0.6,0.9-1.2,1.8-1.8,2.9s-1.4,2.1-2.1,3.2c-0.7,1.1-1.5,2.2-2.2,3.3c-0.7,1.1-1.4,2.1-2.1,3c-0.3,0.5-0.7,0.9-1,1.4
		c-0.3,0.4-0.7,0.9-1,1.3c0.3,0,0.6-0.1,0.9-0.1C46.5,95.6,46.8,95.5,47.1,95.5z"></path>
	<path class="st0 syajHROf_2" d="M67.8,104.5c0.2-0.4,0.5-0.9,0.8-1.6c0.3-0.6,0.7-1.2,1-1.9c0.4-0.6,0.7-1.2,1-1.8c0.3-0.6,0.6-1,0.9-1.3
		c0.4-0.5,0.8-0.8,1.2-1s0.8-0.3,1.2-0.3c0.4,0,0.7,0.1,0.9,0.2c0.3,0.2,0.5,0.4,0.6,0.6c0.2,0.3,0.3,0.6,0.4,0.9s0.1,0.7,0.1,1.1
		c0,0.2,0,0.5,0,0.9s0,0.7-0.1,1.2s0,0.8-0.1,1.3c0,0.4,0,0.9-0.1,1.2c0.2-0.4,0.4-0.9,0.7-1.4c0.3-0.5,0.5-1,0.8-1.5s0.5-1,0.8-1.4
		c0.2-0.4,0.5-0.8,0.7-1.1c0.6-0.8,1.2-1.4,1.7-1.6s1-0.4,1.4-0.4c0.5,0,0.9,0.1,1.2,0.3c0.3,0.2,0.5,0.4,0.7,0.7
		c0.2,0.3,0.3,0.6,0.4,0.9s0.1,0.7,0.1,1c0,0.5,0,1-0.1,1.5s-0.1,1.1-0.1,1.8c0,0.3,0,0.6,0,0.9s0.1,0.5,0.2,0.8s0.2,0.4,0.4,0.5
		c0.2,0.1,0.5,0.2,0.8,0.2c0.4,0,0.7-0.1,1.1-0.3c0.3-0.2,0.7-0.4,1-0.7s0.6-0.7,0.9-1c0.3-0.4,0.5-0.8,0.8-1.2s0.4-0.8,0.6-1.1
		c0.2-0.4,0.3-0.7,0.4-0.9c0.1-0.2,0.2-0.3,0.3-0.4c0.1-0.1,0.3-0.1,0.4-0.1c0.2,0,0.4,0.1,0.6,0.3s0.2,0.4,0.2,0.6
		c0,0.1,0,0.2-0.1,0.3c-0.1,0.1-0.2,0.3-0.3,0.7c-0.2,0.4-0.4,0.8-0.7,1.2s-0.6,0.9-1,1.4s-0.8,1-1.2,1.4c-0.4,0.4-0.9,0.8-1.4,1
		c-0.5,0.3-1.1,0.4-1.6,0.4c-0.6,0-1.1-0.1-1.5-0.3c-0.4-0.2-0.7-0.5-0.9-0.9c-0.2-0.4-0.4-0.8-0.5-1.2c-0.1-0.5-0.1-1-0.1-1.5
		c0-0.7,0-1.3,0.1-1.9s0.1-1,0.1-1.3s0-0.6-0.1-0.8s-0.1-0.3-0.2-0.4s-0.2-0.1-0.3-0.1s-0.1,0-0.2,0c-0.3,0-0.7,0.2-1.1,0.6
		s-0.7,0.9-1.1,1.5s-0.8,1.3-1.2,2.1s-0.8,1.6-1.2,2.4c-0.2,0.4-0.4,0.8-0.6,1.1c-0.2,0.3-0.3,0.5-0.5,0.7c-0.1,0.2-0.3,0.3-0.4,0.4
		s-0.3,0.1-0.5,0.1c-0.4,0-0.6-0.1-0.8-0.4c-0.2-0.2-0.3-0.6-0.3-1c0-0.2,0-0.5,0-0.8s0-0.7,0-1.1s0-0.8,0.1-1.3s0-0.9,0.1-1.3
		c0-0.4,0-0.8,0-1.1s0-0.6,0-0.7c0-0.4-0.1-0.6-0.2-0.8c-0.1-0.2-0.3-0.2-0.4-0.2c-0.2,0-0.3,0.1-0.5,0.2s-0.4,0.3-0.7,0.6
		c-0.2,0.2-0.4,0.6-0.7,1.1c-0.3,0.5-0.6,1-0.9,1.6s-0.7,1.2-1,1.8s-0.6,1.2-0.8,1.6c-0.3,0.6-0.6,1-0.9,1.2s-0.6,0.3-0.9,0.3
		c-0.4,0-0.7-0.1-0.9-0.4c-0.2-0.2-0.3-0.6-0.3-1c0,0,0-0.3,0-0.7c0-0.5,0-1,0.1-1.7c0-0.7,0.1-1.4,0.1-2.1s0.1-1.5,0.1-2.1
		c0-0.3,0-0.7,0-1s-0.1-0.5-0.2-0.5s-0.3,0.3-0.7,0.8c-0.3,0.5-0.7,1.3-1.2,2.5c-0.1,0.2-0.2,0.3-0.3,0.4s-0.3,0.1-0.4,0.1
		c-0.2,0-0.4-0.1-0.6-0.2c-0.1-0.2-0.2-0.3-0.2-0.6c0-0.1,0-0.2,0.1-0.3c0.6-1.5,1.2-2.6,1.8-3.3s1.1-1.1,1.7-1.1
		c0.3,0,0.6,0.1,0.8,0.2s0.4,0.3,0.5,0.6s0.2,0.5,0.3,0.8C68,97.7,68,98,68,98.3c0,1.2,0,2.4-0.1,3.4
		C67.9,102.4,67.8,103.4,67.8,104.5z"></path>
	<path class="st1 syajHROf_3" d="M67.8,104.5c0.2-0.4,0.5-0.9,0.8-1.6c0.3-0.6,0.7-1.2,1-1.9c0.4-0.6,0.7-1.2,1-1.8c0.3-0.6,0.6-1,0.9-1.3
		c0.4-0.5,0.8-0.8,1.2-1s0.8-0.3,1.2-0.3c0.4,0,0.7,0.1,0.9,0.2c0.3,0.2,0.5,0.4,0.6,0.6c0.2,0.3,0.3,0.6,0.4,0.9s0.1,0.7,0.1,1.1
		c0,0.2,0,0.5,0,0.9s0,0.7-0.1,1.2s0,0.8-0.1,1.3c0,0.4,0,0.9-0.1,1.2c0.2-0.4,0.4-0.9,0.7-1.4c0.3-0.5,0.5-1,0.8-1.5s0.5-1,0.8-1.4
		c0.2-0.4,0.5-0.8,0.7-1.1c0.6-0.8,1.2-1.4,1.7-1.6s1-0.4,1.4-0.4c0.5,0,0.9,0.1,1.2,0.3c0.3,0.2,0.5,0.4,0.7,0.7
		c0.2,0.3,0.3,0.6,0.4,0.9s0.1,0.7,0.1,1c0,0.5,0,1-0.1,1.5s-0.1,1.1-0.1,1.8c0,0.3,0,0.6,0,0.9s0.1,0.5,0.2,0.8s0.2,0.4,0.4,0.5
		c0.2,0.1,0.5,0.2,0.8,0.2c0.4,0,0.7-0.1,1.1-0.3c0.3-0.2,0.7-0.4,1-0.7s0.6-0.7,0.9-1c0.3-0.4,0.5-0.8,0.8-1.2s0.4-0.8,0.6-1.1
		c0.2-0.4,0.3-0.7,0.4-0.9c0.1-0.2,0.2-0.3,0.3-0.4c0.1-0.1,0.3-0.1,0.4-0.1c0.2,0,0.4,0.1,0.6,0.3s0.2,0.4,0.2,0.6
		c0,0.1,0,0.2-0.1,0.3c-0.1,0.1-0.2,0.3-0.3,0.7c-0.2,0.4-0.4,0.8-0.7,1.2s-0.6,0.9-1,1.4s-0.8,1-1.2,1.4c-0.4,0.4-0.9,0.8-1.4,1
		c-0.5,0.3-1.1,0.4-1.6,0.4c-0.6,0-1.1-0.1-1.5-0.3c-0.4-0.2-0.7-0.5-0.9-0.9c-0.2-0.4-0.4-0.8-0.5-1.2c-0.1-0.5-0.1-1-0.1-1.5
		c0-0.7,0-1.3,0.1-1.9s0.1-1,0.1-1.3s0-0.6-0.1-0.8s-0.1-0.3-0.2-0.4s-0.2-0.1-0.3-0.1s-0.1,0-0.2,0c-0.3,0-0.7,0.2-1.1,0.6
		s-0.7,0.9-1.1,1.5s-0.8,1.3-1.2,2.1s-0.8,1.6-1.2,2.4c-0.2,0.4-0.4,0.8-0.6,1.1c-0.2,0.3-0.3,0.5-0.5,0.7c-0.1,0.2-0.3,0.3-0.4,0.4
		s-0.3,0.1-0.5,0.1c-0.4,0-0.6-0.1-0.8-0.4c-0.2-0.2-0.3-0.6-0.3-1c0-0.2,0-0.5,0-0.8s0-0.7,0-1.1s0-0.8,0.1-1.3s0-0.9,0.1-1.3
		c0-0.4,0-0.8,0-1.1s0-0.6,0-0.7c0-0.4-0.1-0.6-0.2-0.8c-0.1-0.2-0.3-0.2-0.4-0.2c-0.2,0-0.3,0.1-0.5,0.2s-0.4,0.3-0.7,0.6
		c-0.2,0.2-0.4,0.6-0.7,1.1c-0.3,0.5-0.6,1-0.9,1.6s-0.7,1.2-1,1.8s-0.6,1.2-0.8,1.6c-0.3,0.6-0.6,1-0.9,1.2s-0.6,0.3-0.9,0.3
		c-0.4,0-0.7-0.1-0.9-0.4c-0.2-0.2-0.3-0.6-0.3-1c0,0,0-0.3,0-0.7c0-0.5,0-1,0.1-1.7c0-0.7,0.1-1.4,0.1-2.1s0.1-1.5,0.1-2.1
		c0-0.3,0-0.7,0-1s-0.1-0.5-0.2-0.5s-0.3,0.3-0.7,0.8c-0.3,0.5-0.7,1.3-1.2,2.5c-0.1,0.2-0.2,0.3-0.3,0.4s-0.3,0.1-0.4,0.1
		c-0.2,0-0.4-0.1-0.6-0.2c-0.1-0.2-0.2-0.3-0.2-0.6c0-0.1,0-0.2,0.1-0.3c0.6-1.5,1.2-2.6,1.8-3.3s1.1-1.1,1.7-1.1
		c0.3,0,0.6,0.1,0.8,0.2s0.4,0.3,0.5,0.6s0.2,0.5,0.3,0.8C68,97.7,68,98,68,98.3c0,1.2,0,2.4-0.1,3.4
		C67.9,102.4,67.8,103.4,67.8,104.5z"></path>
	<path class="st0 syajHROf_4" d="M106.3,100.5c-0.1,0.1-0.2,0.3-0.3,0.7c-0.2,0.4-0.4,0.8-0.7,1.2c-0.3,0.5-0.6,0.9-0.9,1.4
		c-0.4,0.5-0.8,1-1.2,1.4c-0.4,0.4-0.9,0.8-1.4,1c-0.5,0.3-1.1,0.4-1.6,0.4c-0.8,0-1.5-0.3-2-0.8s-0.9-1.2-1.2-1.9
		c-0.5,0.8-1,1.4-1.7,1.9s-1.3,0.7-2,0.7c-0.5,0-1-0.1-1.4-0.3c-0.4-0.2-0.8-0.5-1.1-0.8s-0.5-0.7-0.7-1.2s-0.2-1-0.2-1.5
		c0-1.1,0.2-2,0.6-2.9c0.4-0.8,0.8-1.5,1.4-2.1s1.2-1,1.9-1.2c0.7-0.3,1.4-0.4,2-0.4c0.4,0,0.8,0.1,1.2,0.2c0.4,0.1,0.7,0.2,0.9,0.4
		c0.3,0.1,0.5,0.3,0.6,0.4s0.2,0.2,0.2,0.2c0.2,0.2,0.2,0.4,0.2,0.6s-0.1,0.4-0.2,0.6c-0.2,0.2-0.3,0.2-0.5,0.2s-0.4-0.1-0.6-0.2
		c0,0-0.1-0.1-0.2-0.2s-0.2-0.2-0.4-0.2c-0.2-0.1-0.4-0.2-0.6-0.2c-0.2-0.1-0.5-0.1-0.8-0.1c-0.4,0-0.9,0.1-1.4,0.3
		c-0.5,0.2-0.9,0.5-1.3,0.9s-0.7,0.9-1,1.5s-0.4,1.4-0.4,2.2c0,0.3,0,0.5,0.1,0.8s0.2,0.5,0.3,0.7s0.3,0.4,0.6,0.5
		c0.2,0.1,0.5,0.2,0.9,0.2c0.2,0,0.5-0.1,0.9-0.2c0.3-0.2,0.6-0.4,0.9-0.8c0.3-0.3,0.6-0.8,0.8-1.3c0.2-0.5,0.4-1.2,0.5-1.9
		c0-0.2,0.1-0.4,0.3-0.5c0.2-0.1,0.3-0.2,0.5-0.2s0.4,0.1,0.5,0.2c0.1,0.2,0.2,0.3,0.2,0.5c0,0.3,0,0.6,0.1,1.1c0,0.5,0.1,1,0.3,1.4
		c0.1,0.5,0.4,0.9,0.7,1.2c0.3,0.3,0.7,0.5,1.2,0.5c0.3,0,0.7-0.1,1-0.3c0.3-0.2,0.6-0.4,1-0.7s0.6-0.6,0.9-1s0.5-0.8,0.8-1.2
		c0.2-0.4,0.4-0.8,0.6-1.1c0.2-0.4,0.3-0.7,0.5-0.9c0.1-0.2,0.2-0.3,0.3-0.4c0.1-0.1,0.3-0.1,0.4-0.1c0.2,0,0.4,0.1,0.6,0.3
		c0.1,0.2,0.2,0.4,0.2,0.6C106.4,100.3,106.4,100.4,106.3,100.5z"></path>
	<path class="st1 syajHROf_5" d="M106.3,100.5c-0.1,0.1-0.2,0.3-0.3,0.7c-0.2,0.4-0.4,0.8-0.7,1.2c-0.3,0.5-0.6,0.9-0.9,1.4
		c-0.4,0.5-0.8,1-1.2,1.4c-0.4,0.4-0.9,0.8-1.4,1c-0.5,0.3-1.1,0.4-1.6,0.4c-0.8,0-1.5-0.3-2-0.8s-0.9-1.2-1.2-1.9
		c-0.5,0.8-1,1.4-1.7,1.9s-1.3,0.7-2,0.7c-0.5,0-1-0.1-1.4-0.3c-0.4-0.2-0.8-0.5-1.1-0.8s-0.5-0.7-0.7-1.2s-0.2-1-0.2-1.5
		c0-1.1,0.2-2,0.6-2.9c0.4-0.8,0.8-1.5,1.4-2.1s1.2-1,1.9-1.2c0.7-0.3,1.4-0.4,2-0.4c0.4,0,0.8,0.1,1.2,0.2c0.4,0.1,0.7,0.2,0.9,0.4
		c0.3,0.1,0.5,0.3,0.6,0.4s0.2,0.2,0.2,0.2c0.2,0.2,0.2,0.4,0.2,0.6s-0.1,0.4-0.2,0.6c-0.2,0.2-0.3,0.2-0.5,0.2s-0.4-0.1-0.6-0.2
		c0,0-0.1-0.1-0.2-0.2s-0.2-0.2-0.4-0.2c-0.2-0.1-0.4-0.2-0.6-0.2c-0.2-0.1-0.5-0.1-0.8-0.1c-0.4,0-0.9,0.1-1.4,0.3
		c-0.5,0.2-0.9,0.5-1.3,0.9s-0.7,0.9-1,1.5s-0.4,1.4-0.4,2.2c0,0.3,0,0.5,0.1,0.8s0.2,0.5,0.3,0.7s0.3,0.4,0.6,0.5
		c0.2,0.1,0.5,0.2,0.9,0.2c0.2,0,0.5-0.1,0.9-0.2c0.3-0.2,0.6-0.4,0.9-0.8c0.3-0.3,0.6-0.8,0.8-1.3c0.2-0.5,0.4-1.2,0.5-1.9
		c0-0.2,0.1-0.4,0.3-0.5c0.2-0.1,0.3-0.2,0.5-0.2s0.4,0.1,0.5,0.2c0.1,0.2,0.2,0.3,0.2,0.5c0,0.3,0,0.6,0.1,1.1c0,0.5,0.1,1,0.3,1.4
		c0.1,0.5,0.4,0.9,0.7,1.2c0.3,0.3,0.7,0.5,1.2,0.5c0.3,0,0.7-0.1,1-0.3c0.3-0.2,0.6-0.4,1-0.7s0.6-0.6,0.9-1s0.5-0.8,0.8-1.2
		c0.2-0.4,0.4-0.8,0.6-1.1c0.2-0.4,0.3-0.7,0.5-0.9c0.1-0.2,0.2-0.3,0.3-0.4c0.1-0.1,0.3-0.1,0.4-0.1c0.2,0,0.4,0.1,0.6,0.3
		c0.1,0.2,0.2,0.4,0.2,0.6C106.4,100.3,106.4,100.4,106.3,100.5z"></path>
	<path class="st0 syajHROf_6" d="M109.5,104.5c0.2-0.5,0.5-1,0.8-1.5s0.6-1.1,0.9-1.7s0.7-1.1,1.1-1.7s0.8-1.1,1.2-1.6c0.4-0.5,0.8-0.8,1.2-1.1
		s0.8-0.3,1.2-0.3c0.7,0,1.3,0.3,1.6,0.8s0.5,1.2,0.5,2c0,0.2,0,0.4,0,0.7c0,0.3,0,0.5-0.1,0.8c0,0.3,0,0.6-0.1,0.9
		c0,0.3,0,0.6,0,0.8c0,0.3,0,0.7,0.1,1c0,0.3,0.1,0.6,0.2,0.8c0.1,0.2,0.2,0.4,0.4,0.5c0.2,0.1,0.4,0.2,0.7,0.2c0.5,0,1-0.2,1.5-0.6
		s1-0.9,1.4-1.5s0.8-1.1,1.1-1.7c0.3-0.6,0.5-1.1,0.7-1.4c0.1-0.2,0.2-0.3,0.3-0.4c0.1-0.1,0.3-0.1,0.4-0.1c0.2,0,0.4,0.1,0.6,0.3
		s0.2,0.4,0.2,0.6c0,0.1,0,0.2-0.1,0.3c-0.1,0.1-0.2,0.3-0.3,0.7c-0.2,0.3-0.4,0.7-0.7,1.2s-0.6,0.9-0.9,1.4c-0.4,0.5-0.8,1-1.2,1.4
		s-0.9,0.8-1.4,1c-0.5,0.3-1,0.4-1.6,0.4s-1.1-0.1-1.5-0.4s-0.7-0.6-0.9-1s-0.4-0.8-0.4-1.3c-0.1-0.5-0.1-1-0.1-1.4
		c0-0.2,0-0.4,0-0.7c0-0.3,0-0.5,0.1-0.8s0.1-0.6,0.1-0.9s0-0.6,0-0.8c0-0.4-0.1-0.7-0.2-0.9c-0.1-0.2-0.3-0.2-0.4-0.2
		c-0.2,0-0.5,0.1-0.8,0.4s-0.6,0.6-0.9,1s-0.6,0.9-1,1.4c-0.3,0.5-0.6,1-0.9,1.6s-0.5,1-0.8,1.5c-0.2,0.5-0.4,0.9-0.6,1.2
		c-0.3,0.6-0.6,1-0.8,1.2c-0.3,0.2-0.6,0.3-0.9,0.3c-0.4,0-0.7-0.1-1-0.4c-0.2-0.2-0.4-0.6-0.4-1c0-0.1,0-0.3,0-0.6
		c0-0.3,0.1-0.6,0.1-1s0.1-0.8,0.1-1.3s0.1-0.9,0.1-1.4s0.1-0.9,0.1-1.3s0-0.7,0-1s0-0.7,0-1s-0.1-0.5-0.2-0.6
		c-0.1,0-0.3,0.3-0.7,0.8c-0.3,0.5-0.7,1.3-1.2,2.5c-0.1,0.2-0.2,0.3-0.3,0.4c-0.1,0.1-0.3,0.1-0.4,0.1c-0.2,0-0.4-0.1-0.6-0.2
		c-0.1-0.2-0.2-0.3-0.2-0.6c0-0.1,0-0.2,0.1-0.3c0.6-1.5,1.2-2.6,1.8-3.3c0.5-0.7,1.1-1.1,1.6-1.1c0.3,0,0.6,0.1,0.8,0.2
		c0.2,0.2,0.4,0.4,0.5,0.6c0.1,0.3,0.2,0.6,0.3,0.9c0.1,0.3,0.1,0.6,0.1,1c0,0.2,0,0.6-0.1,1.2s-0.1,1.1-0.1,1.7
		c-0.1,0.6-0.1,1.2-0.2,1.8C109.6,103.6,109.5,104.1,109.5,104.5z"></path>
	<path class="st1 syajHROf_7" d="M109.5,104.5c0.2-0.5,0.5-1,0.8-1.5s0.6-1.1,0.9-1.7s0.7-1.1,1.1-1.7s0.8-1.1,1.2-1.6c0.4-0.5,0.8-0.8,1.2-1.1
		s0.8-0.3,1.2-0.3c0.7,0,1.3,0.3,1.6,0.8s0.5,1.2,0.5,2c0,0.2,0,0.4,0,0.7c0,0.3,0,0.5-0.1,0.8c0,0.3,0,0.6-0.1,0.9
		c0,0.3,0,0.6,0,0.8c0,0.3,0,0.7,0.1,1c0,0.3,0.1,0.6,0.2,0.8c0.1,0.2,0.2,0.4,0.4,0.5c0.2,0.1,0.4,0.2,0.7,0.2c0.5,0,1-0.2,1.5-0.6
		s1-0.9,1.4-1.5s0.8-1.1,1.1-1.7c0.3-0.6,0.5-1.1,0.7-1.4c0.1-0.2,0.2-0.3,0.3-0.4c0.1-0.1,0.3-0.1,0.4-0.1c0.2,0,0.4,0.1,0.6,0.3
		s0.2,0.4,0.2,0.6c0,0.1,0,0.2-0.1,0.3c-0.1,0.1-0.2,0.3-0.3,0.7c-0.2,0.3-0.4,0.7-0.7,1.2s-0.6,0.9-0.9,1.4c-0.4,0.5-0.8,1-1.2,1.4
		s-0.9,0.8-1.4,1c-0.5,0.3-1,0.4-1.6,0.4s-1.1-0.1-1.5-0.4s-0.7-0.6-0.9-1s-0.4-0.8-0.4-1.3c-0.1-0.5-0.1-1-0.1-1.4
		c0-0.2,0-0.4,0-0.7c0-0.3,0-0.5,0.1-0.8s0.1-0.6,0.1-0.9s0-0.6,0-0.8c0-0.4-0.1-0.7-0.2-0.9c-0.1-0.2-0.3-0.2-0.4-0.2
		c-0.2,0-0.5,0.1-0.8,0.4s-0.6,0.6-0.9,1s-0.6,0.9-1,1.4c-0.3,0.5-0.6,1-0.9,1.6s-0.5,1-0.8,1.5c-0.2,0.5-0.4,0.9-0.6,1.2
		c-0.3,0.6-0.6,1-0.8,1.2c-0.3,0.2-0.6,0.3-0.9,0.3c-0.4,0-0.7-0.1-1-0.4c-0.2-0.2-0.4-0.6-0.4-1c0-0.1,0-0.3,0-0.6
		c0-0.3,0.1-0.6,0.1-1s0.1-0.8,0.1-1.3s0.1-0.9,0.1-1.4s0.1-0.9,0.1-1.3s0-0.7,0-1s0-0.7,0-1s-0.1-0.5-0.2-0.6
		c-0.1,0-0.3,0.3-0.7,0.8c-0.3,0.5-0.7,1.3-1.2,2.5c-0.1,0.2-0.2,0.3-0.3,0.4c-0.1,0.1-0.3,0.1-0.4,0.1c-0.2,0-0.4-0.1-0.6-0.2
		c-0.1-0.2-0.2-0.3-0.2-0.6c0-0.1,0-0.2,0.1-0.3c0.6-1.5,1.2-2.6,1.8-3.3c0.5-0.7,1.1-1.1,1.6-1.1c0.3,0,0.6,0.1,0.8,0.2
		c0.2,0.2,0.4,0.4,0.5,0.6c0.1,0.3,0.2,0.6,0.3,0.9c0.1,0.3,0.1,0.6,0.1,1c0,0.2,0,0.6-0.1,1.2s-0.1,1.1-0.1,1.7
		c-0.1,0.6-0.1,1.2-0.2,1.8C109.6,103.6,109.5,104.1,109.5,104.5z"></path>
	<path class="st0 syajHROf_8" d="M140.7,85.5c0,0.2-0.1,0.4-0.2,0.5c-0.2,0.1-0.3,0.2-0.6,0.2h-10.6v0.2c0,0.8-0.1,1.7-0.2,2.7
		c-0.1,1-0.3,1.9-0.5,2.9s-0.5,1.9-0.7,2.8c-0.3,0.9-0.5,1.7-0.8,2.5s-0.6,1.4-0.8,2s-0.5,1-0.7,1.3c0.2,0.6,0.4,1.2,0.6,1.8
		c0.2,0.5,0.5,1,0.8,1.4s0.6,0.7,1,1c0.4,0.2,0.7,0.4,1.2,0.4s1-0.2,1.4-0.6s0.9-0.9,1.3-1.5c0.4-0.6,0.8-1.1,1.1-1.7s0.5-1,0.7-1.4
		c0.1-0.3,0.4-0.5,0.7-0.5c0.2,0,0.4,0.1,0.6,0.2c0.1,0.2,0.2,0.3,0.2,0.5c0,0.1,0,0.2-0.1,0.3c0,0.1-0.1,0.3-0.3,0.7
		c-0.2,0.3-0.4,0.7-0.6,1.2c-0.3,0.5-0.6,0.9-0.9,1.4c-0.3,0.5-0.7,1-1.1,1.4s-0.9,0.8-1.4,1c-0.5,0.3-1,0.4-1.5,0.4
		c-1,0-1.8-0.3-2.6-0.9s-1.4-1.5-1.9-2.6s-0.9-2.5-1.2-4c-0.3-1.5-0.4-3.2-0.4-5.1c0-0.5,0-1,0-1.6s0-1.3,0.1-2
		c0-0.7,0.1-1.4,0.2-2.1s0.2-1.4,0.3-2.1h-7.5c-0.2,0-0.4-0.1-0.6-0.2s-0.2-0.3-0.2-0.5s0.1-0.4,0.2-0.5s0.3-0.2,0.6-0.2h7.8
		c0.1-0.5,0.3-1,0.5-1.4s0.4-0.8,0.6-1.1s0.5-0.5,0.8-0.7s0.6-0.3,1-0.3c0.3,0,0.6,0.1,0.9,0.3c0.3,0.2,0.5,0.4,0.7,0.7
		s0.3,0.7,0.4,1.1c0.1,0.4,0.2,0.9,0.2,1.4h10.6c0.2,0,0.4,0.1,0.6,0.2C140.6,85.1,140.7,85.3,140.7,85.5z M125,98.5
		c0.4-0.9,0.8-1.9,1.1-3s0.6-2.1,0.9-3.2c0.2-1.1,0.4-2.1,0.6-3.2c0.1-1,0.2-2,0.2-2.9h-2.5c-0.2,0.9-0.4,1.9-0.5,3.2
		c-0.1,1.3-0.2,2.8-0.2,4.6c0,1,0,1.9,0.1,2.6C124.8,97.3,124.9,97.9,125,98.5z M127,82.9c-0.1,0-0.3,0.1-0.5,0.4s-0.5,0.8-0.7,1.5
		h2c-0.1-0.6-0.2-1-0.3-1.4S127.1,82.9,127,82.9z"></path>
	<path class="st1 syajHROf_9" d="M140.7,85.5c0,0.2-0.1,0.4-0.2,0.5c-0.2,0.1-0.3,0.2-0.6,0.2h-10.6v0.2c0,0.8-0.1,1.7-0.2,2.7
		c-0.1,1-0.3,1.9-0.5,2.9s-0.5,1.9-0.7,2.8c-0.3,0.9-0.5,1.7-0.8,2.5s-0.6,1.4-0.8,2s-0.5,1-0.7,1.3c0.2,0.6,0.4,1.2,0.6,1.8
		c0.2,0.5,0.5,1,0.8,1.4s0.6,0.7,1,1c0.4,0.2,0.7,0.4,1.2,0.4s1-0.2,1.4-0.6s0.9-0.9,1.3-1.5c0.4-0.6,0.8-1.1,1.1-1.7s0.5-1,0.7-1.4
		c0.1-0.3,0.4-0.5,0.7-0.5c0.2,0,0.4,0.1,0.6,0.2c0.1,0.2,0.2,0.3,0.2,0.5c0,0.1,0,0.2-0.1,0.3c0,0.1-0.1,0.3-0.3,0.7
		c-0.2,0.3-0.4,0.7-0.6,1.2c-0.3,0.5-0.6,0.9-0.9,1.4c-0.3,0.5-0.7,1-1.1,1.4s-0.9,0.8-1.4,1c-0.5,0.3-1,0.4-1.5,0.4
		c-1,0-1.8-0.3-2.6-0.9s-1.4-1.5-1.9-2.6s-0.9-2.5-1.2-4c-0.3-1.5-0.4-3.2-0.4-5.1c0-0.5,0-1,0-1.6s0-1.3,0.1-2
		c0-0.7,0.1-1.4,0.2-2.1s0.2-1.4,0.3-2.1h-7.5c-0.2,0-0.4-0.1-0.6-0.2s-0.2-0.3-0.2-0.5s0.1-0.4,0.2-0.5s0.3-0.2,0.6-0.2h7.8
		c0.1-0.5,0.3-1,0.5-1.4s0.4-0.8,0.6-1.1s0.5-0.5,0.8-0.7s0.6-0.3,1-0.3c0.3,0,0.6,0.1,0.9,0.3c0.3,0.2,0.5,0.4,0.7,0.7
		s0.3,0.7,0.4,1.1c0.1,0.4,0.2,0.9,0.2,1.4h10.6c0.2,0,0.4,0.1,0.6,0.2C140.6,85.1,140.7,85.3,140.7,85.5z M125,98.5
		c0.4-0.9,0.8-1.9,1.1-3s0.6-2.1,0.9-3.2c0.2-1.1,0.4-2.1,0.6-3.2c0.1-1,0.2-2,0.2-2.9h-2.5c-0.2,0.9-0.4,1.9-0.5,3.2
		c-0.1,1.3-0.2,2.8-0.2,4.6c0,1,0,1.9,0.1,2.6C124.8,97.3,124.9,97.9,125,98.5z M127,82.9c-0.1,0-0.3,0.1-0.5,0.4s-0.5,0.8-0.7,1.5
		h2c-0.1-0.6-0.2-1-0.3-1.4S127.1,82.9,127,82.9z"></path>
	<path class="st0 syajHROf_10" d="M136,97.8c-0.1,0.4-0.1,0.7-0.2,1.1c-0.1,0.3-0.2,0.6-0.2,0.9c-0.1,0.2-0.1,0.4-0.2,0.6
		c-0.1,0.2-0.1,0.2-0.1,0.2c-0.1,0.3-0.4,0.5-0.7,0.5c-0.2,0-0.4-0.1-0.5-0.2c-0.2-0.1-0.2-0.3-0.2-0.6c0-0.1,0-0.1,0-0.2
		c0,0,0.1-0.1,0.1-0.2s0.1-0.3,0.2-0.6c0.1-0.3,0.2-0.7,0.3-1.4c-0.2,0-0.5,0-0.7,0s-0.5-0.1-0.7-0.1c-0.2-0.1-0.4-0.2-0.5-0.4
		c-0.1-0.2-0.2-0.4-0.2-0.7c0-0.2,0.1-0.6,0.2-1c0.1-0.4,0.3-0.8,0.5-1.2c0.2-0.4,0.5-0.7,0.7-1c0.3-0.3,0.6-0.4,0.8-0.4
		c0.3,0,0.6,0.1,0.8,0.4s0.4,0.5,0.5,0.9c0.1,0.3,0.2,0.7,0.2,1.1s0.1,0.7,0.1,1c0.2,0,0.5,0,0.7,0s0.4,0,0.7,0
		c0.8,0,1.4,0.2,1.8,0.5c0.4,0.3,0.6,0.9,0.6,1.7c0,0.3,0,0.7-0.1,1c0,0.3-0.1,0.7-0.1,1.1c-0.1,0.4-0.1,0.7-0.1,1.1
		s-0.1,0.7-0.1,1.1c0,0.5,0.1,0.9,0.2,1.2c0.1,0.3,0.3,0.6,0.5,0.8s0.4,0.3,0.7,0.4c0.2,0.1,0.5,0.1,0.6,0.1c0.6,0,1.2-0.2,1.7-0.6
		s1-0.9,1.5-1.4s0.8-1.1,1.2-1.7s0.6-1.1,0.9-1.6c0.1-0.1,0.2-0.2,0.3-0.3c0.1-0.1,0.3-0.1,0.4-0.1c0.2,0,0.4,0.1,0.6,0.2
		c0.1,0.2,0.2,0.3,0.2,0.5c0,0.1,0,0.3-0.1,0.4c-0.3,0.6-0.7,1.2-1.1,1.9s-0.9,1.4-1.4,2s-1.1,1.2-1.8,1.6s-1.4,0.6-2.2,0.6
		c-0.5,0-1-0.1-1.4-0.3c-0.4-0.2-0.8-0.5-1.2-0.8c-0.3-0.4-0.6-0.8-0.8-1.3s-0.3-1.1-0.3-1.8c0-0.7,0.1-1.4,0.2-2.1
		c0.1-0.7,0.2-1.3,0.2-2c0-0.3-0.1-0.5-0.2-0.6c-0.1-0.1-0.4-0.2-0.8-0.2c-0.2,0-0.4,0-0.6,0S136.3,97.8,136,97.8z M134.6,96.2
		c0-0.1,0-0.2,0-0.4c0-0.2,0-0.3,0-0.5s0-0.3-0.1-0.4c0-0.1-0.1-0.2-0.1-0.2s-0.1,0.1-0.2,0.2s-0.1,0.2-0.2,0.4
		c-0.1,0.1-0.1,0.3-0.2,0.5c-0.1,0.2-0.1,0.3-0.1,0.4H134.6z"></path>
	<path class="st1 syajHROf_11" d="M136,97.8c-0.1,0.4-0.1,0.7-0.2,1.1c-0.1,0.3-0.2,0.6-0.2,0.9c-0.1,0.2-0.1,0.4-0.2,0.6
		c-0.1,0.2-0.1,0.2-0.1,0.2c-0.1,0.3-0.4,0.5-0.7,0.5c-0.2,0-0.4-0.1-0.5-0.2c-0.2-0.1-0.2-0.3-0.2-0.6c0-0.1,0-0.1,0-0.2
		c0,0,0.1-0.1,0.1-0.2s0.1-0.3,0.2-0.6c0.1-0.3,0.2-0.7,0.3-1.4c-0.2,0-0.5,0-0.7,0s-0.5-0.1-0.7-0.1c-0.2-0.1-0.4-0.2-0.5-0.4
		c-0.1-0.2-0.2-0.4-0.2-0.7c0-0.2,0.1-0.6,0.2-1c0.1-0.4,0.3-0.8,0.5-1.2c0.2-0.4,0.5-0.7,0.7-1c0.3-0.3,0.6-0.4,0.8-0.4
		c0.3,0,0.6,0.1,0.8,0.4s0.4,0.5,0.5,0.9c0.1,0.3,0.2,0.7,0.2,1.1s0.1,0.7,0.1,1c0.2,0,0.5,0,0.7,0s0.4,0,0.7,0
		c0.8,0,1.4,0.2,1.8,0.5c0.4,0.3,0.6,0.9,0.6,1.7c0,0.3,0,0.7-0.1,1c0,0.3-0.1,0.7-0.1,1.1c-0.1,0.4-0.1,0.7-0.1,1.1
		s-0.1,0.7-0.1,1.1c0,0.5,0.1,0.9,0.2,1.2c0.1,0.3,0.3,0.6,0.5,0.8s0.4,0.3,0.7,0.4c0.2,0.1,0.5,0.1,0.6,0.1c0.6,0,1.2-0.2,1.7-0.6
		s1-0.9,1.5-1.4s0.8-1.1,1.2-1.7s0.6-1.1,0.9-1.6c0.1-0.1,0.2-0.2,0.3-0.3c0.1-0.1,0.3-0.1,0.4-0.1c0.2,0,0.4,0.1,0.6,0.2
		c0.1,0.2,0.2,0.3,0.2,0.5c0,0.1,0,0.3-0.1,0.4c-0.3,0.6-0.7,1.2-1.1,1.9s-0.9,1.4-1.4,2s-1.1,1.2-1.8,1.6s-1.4,0.6-2.2,0.6
		c-0.5,0-1-0.1-1.4-0.3c-0.4-0.2-0.8-0.5-1.2-0.8c-0.3-0.4-0.6-0.8-0.8-1.3s-0.3-1.1-0.3-1.8c0-0.7,0.1-1.4,0.2-2.1
		c0.1-0.7,0.2-1.3,0.2-2c0-0.3-0.1-0.5-0.2-0.6c-0.1-0.1-0.4-0.2-0.8-0.2c-0.2,0-0.4,0-0.6,0S136.3,97.8,136,97.8z M134.6,96.2
		c0-0.1,0-0.2,0-0.4c0-0.2,0-0.3,0-0.5s0-0.3-0.1-0.4c0-0.1-0.1-0.2-0.1-0.2s-0.1,0.1-0.2,0.2s-0.1,0.2-0.2,0.4
		c-0.1,0.1-0.1,0.3-0.2,0.5c-0.1,0.2-0.1,0.3-0.1,0.4H134.6z"></path>
	<path class="st0 syajHROf_12" d="M154.5,106.6c0.5-0.5,1-1,1.5-1.5s1-1,1.5-1.6s0.9-1.1,1.3-1.7s0.8-1.2,1.1-1.9c0.1-0.2,0.2-0.3,0.3-0.3
		c0.1-0.1,0.3-0.1,0.4-0.1c0.2,0,0.4,0.1,0.6,0.2c0.1,0.2,0.2,0.4,0.2,0.6c0,0.1,0,0.2-0.1,0.3c-0.4,0.9-0.9,1.7-1.5,2.5
		s-1.1,1.5-1.7,2.1c-0.6,0.7-1.2,1.3-1.9,2s-1.2,1.3-1.8,1.9c-0.1,1-0.1,1.9,0,2.9s0.1,2,0.1,3.1c0,0.9,0,1.8-0.1,2.7
		c-0.1,0.9-0.1,1.7-0.3,2.6c-0.1,0.8-0.3,1.6-0.5,2.3c-0.2,0.7-0.5,1.3-0.8,1.8s-0.7,0.9-1.2,1.2c-0.4,0.3-1,0.4-1.6,0.4
		c-1,0-1.7-0.3-2.3-1c-0.5-0.7-0.8-1.6-0.8-2.9c0-0.7,0.1-1.4,0.2-2.1c0.1-0.8,0.4-1.6,0.6-2.4c0.3-0.8,0.6-1.6,0.9-2.5
		c0.4-0.8,0.8-1.6,1.2-2.4s0.9-1.5,1.4-2.3s1-1.4,1.5-1.9c0-0.7,0.1-1.4,0.1-2.1s0.1-1.4,0.1-2c-0.4,0.6-0.8,1.2-1.3,1.5
		c-0.5,0.4-1.1,0.6-1.8,0.6c-1.1,0-1.9-0.4-2.5-1.1s-0.9-1.7-0.9-2.9c0-0.9,0.1-1.7,0.3-2.5s0.4-1.4,0.6-1.9s0.4-0.9,0.6-1.2
		c0.2-0.3,0.2-0.4,0.2-0.4c0.2-0.2,0.4-0.4,0.6-0.4c0.2,0,0.4,0.1,0.6,0.2c0.1,0.2,0.2,0.3,0.2,0.6c0,0.2,0,0.3-0.1,0.4
		c0,0-0.1,0.1-0.2,0.3c-0.1,0.2-0.3,0.6-0.5,1.1s-0.3,1-0.5,1.6c-0.1,0.6-0.2,1.3-0.2,2.1c0,0.8,0.1,1.4,0.4,1.8
		c0.3,0.4,0.7,0.6,1.4,0.6c0.8,0,1.5-0.6,2.1-1.8s1.2-2.9,1.6-5.1c0-0.2,0.1-0.3,0.2-0.4c0.1-0.1,0.3-0.2,0.5-0.2s0.4,0.1,0.6,0.2
		c0.2,0.2,0.2,0.3,0.2,0.6c0,0,0,0.3-0.1,0.7c-0.1,0.5-0.1,1.1-0.2,1.8c-0.1,0.7-0.2,1.6-0.2,2.6
		C154.6,104.4,154.5,105.5,154.5,106.6z M152.8,111c-0.6,0.9-1.2,1.9-1.7,2.9s-1,2-1.3,3c-0.4,1-0.7,1.9-0.9,2.8s-0.3,1.7-0.3,2.4
		c0,0.7,0.1,1.3,0.4,1.7c0.2,0.4,0.6,0.6,1.1,0.6s0.9-0.2,1.2-0.7c0.4-0.5,0.7-1.1,0.9-1.9s0.4-1.8,0.6-3c0.1-1.2,0.2-2.5,0.2-4
		c0-0.6,0-1.2,0-1.8C152.9,112.4,152.8,111.7,152.8,111z"></path>
	<path class="st1 syajHROf_13" d="M154.5,106.6c0.5-0.5,1-1,1.5-1.5s1-1,1.5-1.6s0.9-1.1,1.3-1.7s0.8-1.2,1.1-1.9c0.1-0.2,0.2-0.3,0.3-0.3
		c0.1-0.1,0.3-0.1,0.4-0.1c0.2,0,0.4,0.1,0.6,0.2c0.1,0.2,0.2,0.4,0.2,0.6c0,0.1,0,0.2-0.1,0.3c-0.4,0.9-0.9,1.7-1.5,2.5
		s-1.1,1.5-1.7,2.1c-0.6,0.7-1.2,1.3-1.9,2s-1.2,1.3-1.8,1.9c-0.1,1-0.1,1.9,0,2.9s0.1,2,0.1,3.1c0,0.9,0,1.8-0.1,2.7
		c-0.1,0.9-0.1,1.7-0.3,2.6c-0.1,0.8-0.3,1.6-0.5,2.3c-0.2,0.7-0.5,1.3-0.8,1.8s-0.7,0.9-1.2,1.2c-0.4,0.3-1,0.4-1.6,0.4
		c-1,0-1.7-0.3-2.3-1c-0.5-0.7-0.8-1.6-0.8-2.9c0-0.7,0.1-1.4,0.2-2.1c0.1-0.8,0.4-1.6,0.6-2.4c0.3-0.8,0.6-1.6,0.9-2.5
		c0.4-0.8,0.8-1.6,1.2-2.4s0.9-1.5,1.4-2.3s1-1.4,1.5-1.9c0-0.7,0.1-1.4,0.1-2.1s0.1-1.4,0.1-2c-0.4,0.6-0.8,1.2-1.3,1.5
		c-0.5,0.4-1.1,0.6-1.8,0.6c-1.1,0-1.9-0.4-2.5-1.1s-0.9-1.7-0.9-2.9c0-0.9,0.1-1.7,0.3-2.5s0.4-1.4,0.6-1.9s0.4-0.9,0.6-1.2
		c0.2-0.3,0.2-0.4,0.2-0.4c0.2-0.2,0.4-0.4,0.6-0.4c0.2,0,0.4,0.1,0.6,0.2c0.1,0.2,0.2,0.3,0.2,0.6c0,0.2,0,0.3-0.1,0.4
		c0,0-0.1,0.1-0.2,0.3c-0.1,0.2-0.3,0.6-0.5,1.1s-0.3,1-0.5,1.6c-0.1,0.6-0.2,1.3-0.2,2.1c0,0.8,0.1,1.4,0.4,1.8
		c0.3,0.4,0.7,0.6,1.4,0.6c0.8,0,1.5-0.6,2.1-1.8s1.2-2.9,1.6-5.1c0-0.2,0.1-0.3,0.2-0.4c0.1-0.1,0.3-0.2,0.5-0.2s0.4,0.1,0.6,0.2
		c0.2,0.2,0.2,0.3,0.2,0.6c0,0,0,0.3-0.1,0.7c-0.1,0.5-0.1,1.1-0.2,1.8c-0.1,0.7-0.2,1.6-0.2,2.6
		C154.6,104.4,154.5,105.5,154.5,106.6z M152.8,111c-0.6,0.9-1.2,1.9-1.7,2.9s-1,2-1.3,3c-0.4,1-0.7,1.9-0.9,2.8s-0.3,1.7-0.3,2.4
		c0,0.7,0.1,1.3,0.4,1.7c0.2,0.4,0.6,0.6,1.1,0.6s0.9-0.2,1.2-0.7c0.4-0.5,0.7-1.1,0.9-1.9s0.4-1.8,0.6-3c0.1-1.2,0.2-2.5,0.2-4
		c0-0.6,0-1.2,0-1.8C152.9,112.4,152.8,111.7,152.8,111z"></path>
	<path class="st0 syajHROf_14" d="M175.9,100.5c-0.1,0.1-0.2,0.3-0.3,0.7c-0.2,0.4-0.4,0.8-0.7,1.2c-0.3,0.5-0.6,0.9-0.9,1.4
		c-0.4,0.5-0.8,1-1.2,1.4s-0.9,0.8-1.4,1c-0.5,0.3-1.1,0.4-1.6,0.4c-0.8,0-1.5-0.3-2-0.8s-0.9-1.2-1.2-1.9c-0.5,0.8-1,1.4-1.7,1.9
		s-1.3,0.7-2,0.7c-0.5,0-1-0.1-1.4-0.3c-0.4-0.2-0.8-0.5-1.1-0.8s-0.5-0.7-0.7-1.2s-0.2-1-0.2-1.5c0-1.1,0.2-2,0.6-2.9
		c0.4-0.8,0.8-1.5,1.4-2.1c0.6-0.6,1.2-1,1.9-1.2c0.7-0.3,1.4-0.4,2-0.4c0.4,0,0.8,0.1,1.2,0.2s0.7,0.2,0.9,0.4s0.5,0.3,0.6,0.4
		s0.2,0.2,0.2,0.2c0.2,0.2,0.2,0.4,0.2,0.6s-0.1,0.4-0.2,0.6c-0.2,0.2-0.3,0.2-0.5,0.2s-0.4-0.1-0.6-0.2c0,0-0.1-0.1-0.2-0.2
		s-0.2-0.2-0.4-0.2c-0.2-0.1-0.4-0.2-0.6-0.2c-0.2-0.1-0.5-0.1-0.8-0.1c-0.4,0-0.9,0.1-1.4,0.3c-0.5,0.2-0.9,0.5-1.3,0.9
		s-0.7,0.9-1,1.5s-0.4,1.4-0.4,2.2c0,0.3,0,0.5,0.1,0.8s0.2,0.5,0.3,0.7s0.3,0.4,0.6,0.5c0.2,0.1,0.5,0.2,0.9,0.2
		c0.2,0,0.5-0.1,0.9-0.2c0.3-0.2,0.6-0.4,0.9-0.8c0.3-0.3,0.6-0.8,0.8-1.3s0.4-1.2,0.5-1.9c0-0.2,0.1-0.4,0.3-0.5s0.3-0.2,0.5-0.2
		s0.4,0.1,0.5,0.2c0.1,0.2,0.2,0.3,0.2,0.5c0,0.3,0,0.6,0.1,1.1c0,0.5,0.1,1,0.3,1.4s0.4,0.9,0.7,1.2c0.3,0.3,0.7,0.5,1.2,0.5
		c0.3,0,0.7-0.1,1-0.3c0.3-0.2,0.6-0.4,1-0.7c0.3-0.3,0.6-0.6,0.9-1c0.3-0.4,0.5-0.8,0.8-1.2c0.2-0.4,0.4-0.8,0.6-1.1
		c0.2-0.4,0.3-0.7,0.5-0.9c0.1-0.2,0.2-0.3,0.3-0.4s0.3-0.1,0.4-0.1c0.2,0,0.4,0.1,0.6,0.3c0.1,0.2,0.2,0.4,0.2,0.6
		C176,100.3,176,100.4,175.9,100.5z"></path>
	<path class="st1 syajHROf_15" d="M175.9,100.5c-0.1,0.1-0.2,0.3-0.3,0.7c-0.2,0.4-0.4,0.8-0.7,1.2c-0.3,0.5-0.6,0.9-0.9,1.4
		c-0.4,0.5-0.8,1-1.2,1.4s-0.9,0.8-1.4,1c-0.5,0.3-1.1,0.4-1.6,0.4c-0.8,0-1.5-0.3-2-0.8s-0.9-1.2-1.2-1.9c-0.5,0.8-1,1.4-1.7,1.9
		s-1.3,0.7-2,0.7c-0.5,0-1-0.1-1.4-0.3c-0.4-0.2-0.8-0.5-1.1-0.8s-0.5-0.7-0.7-1.2s-0.2-1-0.2-1.5c0-1.1,0.2-2,0.6-2.9
		c0.4-0.8,0.8-1.5,1.4-2.1c0.6-0.6,1.2-1,1.9-1.2c0.7-0.3,1.4-0.4,2-0.4c0.4,0,0.8,0.1,1.2,0.2s0.7,0.2,0.9,0.4s0.5,0.3,0.6,0.4
		s0.2,0.2,0.2,0.2c0.2,0.2,0.2,0.4,0.2,0.6s-0.1,0.4-0.2,0.6c-0.2,0.2-0.3,0.2-0.5,0.2s-0.4-0.1-0.6-0.2c0,0-0.1-0.1-0.2-0.2
		s-0.2-0.2-0.4-0.2c-0.2-0.1-0.4-0.2-0.6-0.2c-0.2-0.1-0.5-0.1-0.8-0.1c-0.4,0-0.9,0.1-1.4,0.3c-0.5,0.2-0.9,0.5-1.3,0.9
		s-0.7,0.9-1,1.5s-0.4,1.4-0.4,2.2c0,0.3,0,0.5,0.1,0.8s0.2,0.5,0.3,0.7s0.3,0.4,0.6,0.5c0.2,0.1,0.5,0.2,0.9,0.2
		c0.2,0,0.5-0.1,0.9-0.2c0.3-0.2,0.6-0.4,0.9-0.8c0.3-0.3,0.6-0.8,0.8-1.3s0.4-1.2,0.5-1.9c0-0.2,0.1-0.4,0.3-0.5s0.3-0.2,0.5-0.2
		s0.4,0.1,0.5,0.2c0.1,0.2,0.2,0.3,0.2,0.5c0,0.3,0,0.6,0.1,1.1c0,0.5,0.1,1,0.3,1.4s0.4,0.9,0.7,1.2c0.3,0.3,0.7,0.5,1.2,0.5
		c0.3,0,0.7-0.1,1-0.3c0.3-0.2,0.6-0.4,1-0.7c0.3-0.3,0.6-0.6,0.9-1c0.3-0.4,0.5-0.8,0.8-1.2c0.2-0.4,0.4-0.8,0.6-1.1
		c0.2-0.4,0.3-0.7,0.5-0.9c0.1-0.2,0.2-0.3,0.3-0.4s0.3-0.1,0.4-0.1c0.2,0,0.4,0.1,0.6,0.3c0.1,0.2,0.2,0.4,0.2,0.6
		C176,100.3,176,100.4,175.9,100.5z"></path>
	<path class="st2 syajHROf_16" d="M173.3,90.5c0-1.3,0.7-2.7,2.1-3c1.9-0.4,2.7,1.7,3.2,3.1c0,0.1,0.2,0.2,0.3,0.1c0.7-0.7,1.4-1.4,2.5-1.6
		c0.6-0.1,1.4,0.2,1.7,0.8c0.3,0.5,0.1,1.1-0.1,1.5c-0.5,1.2-1.6,2.2-2.6,3c-0.8,0.6-1.6,1.1-2.4,1.6
		C175.9,94.7,173.3,93.2,173.3,90.5z"></path>
	<path class="st2 syajHROf_17" d="M166.2,80.5c0.2-1.2,1.2-2.3,2.4-2.6c2-0.6,3,1.4,3.1,3.1c0,0.2,0.4,0.4,0.4,0.1c0.5-1.6,2.5-2.4,3.9-1.6
		c1.3,0.7,1.5,2.3,1,3.5c-0.6,1.5-2.1,2.3-3.5,2.9c-0.8,0.3-1.5,0.6-2.3,0.9c-0.4,0.2-0.8,0.4-1.2,0.6c0,0,0,0,0,0c0,0,0,0,0,0
		C168.4,85.3,165.7,83.4,166.2,80.5z"></path>
	<path class="st2 syajHROf_18" d="M183,86.3c-1-0.2-1.8-0.9-2.5-1.5c0.2-0.5,0.2-1,0.3-1.5c0.1-0.7,0.5-1.5,1-2c0.6-0.6,1.6-0.7,2.2,0
		c0.6,0.7,0.1,1.5-0.4,2.1c-0.1,0.1,0,0.3,0.1,0.2c1.1-0.6,2.9,0.1,2.5,1.6C185.8,86.3,183.9,86.5,183,86.3z"></path>
</g>
<style>.syajHROf_0{stroke-dasharray:256 258;stroke-dashoffset:257;animation:syajHROf_draw_0 3100ms ease-out 0ms infinite,syajHROf_fade 3100ms linear 0ms infinite;}.syajHROf_1{stroke-dasharray:256 258;stroke-dashoffset:257;animation:syajHROf_draw_1 3100ms ease-out 0ms infinite,syajHROf_fade 3100ms linear 0ms infinite;}.syajHROf_2{stroke-dasharray:134 136;stroke-dashoffset:135;animation:syajHROf_draw_2 3100ms ease-out 0ms infinite,syajHROf_fade 3100ms linear 0ms infinite;}.syajHROf_3{stroke-dasharray:134 136;stroke-dashoffset:135;animation:syajHROf_draw_3 3100ms ease-out 0ms infinite,syajHROf_fade 3100ms linear 0ms infinite;}.syajHROf_4{stroke-dasharray:76 78;stroke-dashoffset:77;animation:syajHROf_draw_4 3100ms ease-out 0ms infinite,syajHROf_fade 3100ms linear 0ms infinite;}.syajHROf_5{stroke-dasharray:76 78;stroke-dashoffset:77;animation:syajHROf_draw_5 3100ms ease-out 0ms infinite,syajHROf_fade 3100ms linear 0ms infinite;}.syajHROf_6{stroke-dasharray:94 96;stroke-dashoffset:95;animation:syajHROf_draw_6 3100ms ease-out 0ms infinite,syajHROf_fade 3100ms linear 0ms infinite;}.syajHROf_7{stroke-dasharray:94 96;stroke-dashoffset:95;animation:syajHROf_draw_7 3100ms ease-out 0ms infinite,syajHROf_fade 3100ms linear 0ms infinite;}.syajHROf_8{stroke-dasharray:148 150;stroke-dashoffset:149;animation:syajHROf_draw_8 3100ms ease-out 0ms infinite,syajHROf_fade 3100ms linear 0ms infinite;}.syajHROf_9{stroke-dasharray:148 150;stroke-dashoffset:149;animation:syajHROf_draw_9 3100ms ease-out 0ms infinite,syajHROf_fade 3100ms linear 0ms infinite;}.syajHROf_10{stroke-dasharray:70 72;stroke-dashoffset:71;animation:syajHROf_draw_10 3100ms ease-out 0ms infinite,syajHROf_fade 3100ms linear 0ms infinite;}.syajHROf_11{stroke-dasharray:70 72;stroke-dashoffset:71;animation:syajHROf_draw_11 3100ms ease-out 0ms infinite,syajHROf_fade 3100ms linear 0ms infinite;}.syajHROf_12{stroke-dasharray:143 145;stroke-dashoffset:144;animation:syajHROf_draw_12 3100ms ease-out 0ms infinite,syajHROf_fade 3100ms linear 0ms infinite;}.syajHROf_13{stroke-dasharray:143 145;stroke-dashoffset:144;animation:syajHROf_draw_13 3100ms ease-out 0ms infinite,syajHROf_fade 3100ms linear 0ms infinite;}.syajHROf_14{stroke-dasharray:76 78;stroke-dashoffset:77;animation:syajHROf_draw_14 3100ms ease-out 0ms infinite,syajHROf_fade 3100ms linear 0ms infinite;}.syajHROf_15{stroke-dasharray:76 78;stroke-dashoffset:77;animation:syajHROf_draw_15 3100ms ease-out 0ms infinite,syajHROf_fade 3100ms linear 0ms infinite;}.syajHROf_16{stroke-dasharray:31 33;stroke-dashoffset:32;animation:syajHROf_draw_16 3100ms ease-out 0ms infinite,syajHROf_fade 3100ms linear 0ms infinite;}.syajHROf_17{stroke-dasharray:35 37;stroke-dashoffset:36;animation:syajHROf_draw_17 3100ms ease-out 0ms infinite,syajHROf_fade 3100ms linear 0ms infinite;}.syajHROf_18{stroke-dasharray:20 22;stroke-dashoffset:21;animation:syajHROf_draw_18 3100ms ease-out 0ms infinite,syajHROf_fade 3100ms linear 0ms infinite;}@keyframes syajHROf_draw{100%{stroke-dashoffset:0;}}@keyframes syajHROf_fade{0%{stroke-opacity:1;}90.3225806451613%{stroke-opacity:1;}100%{stroke-opacity:0;}}@keyframes syajHROf_draw_0{9.67741935483871%{stroke-dashoffset: 257}17.5767262444482%{ stroke-dashoffset: 0;}100%{ stroke-dashoffset: 0;}}@keyframes syajHROf_draw_1{17.5767262444482%{stroke-dashoffset: 257}25.47603313405769%{ stroke-dashoffset: 0;}100%{ stroke-dashoffset: 0;}}@keyframes syajHROf_draw_2{25.47603313405769%{stroke-dashoffset: 135}29.625474496303923%{ stroke-dashoffset: 0;}100%{ stroke-dashoffset: 0;}}@keyframes syajHROf_draw_3{29.625474496303923%{stroke-dashoffset: 135}33.77491585855016%{ stroke-dashoffset: 0;}100%{ stroke-dashoffset: 0;}}@keyframes syajHROf_draw_4{33.77491585855016%{stroke-dashoffset: 77}36.14163426516467%{ stroke-dashoffset: 0;}100%{ stroke-dashoffset: 0;}}@keyframes syajHROf_draw_5{36.14163426516467%{stroke-dashoffset: 77}38.508352671779186%{ stroke-dashoffset: 0;}100%{ stroke-dashoffset: 0;}}@keyframes syajHROf_draw_6{38.508352671779186%{stroke-dashoffset: 95}41.428329926693195%{ stroke-dashoffset: 0;}100%{ stroke-dashoffset: 0;}}@keyframes syajHROf_draw_7{41.428329926693195%{stroke-dashoffset: 95}44.34830718160721%{ stroke-dashoffset: 0;}100%{ stroke-dashoffset: 0;}}@keyframes syajHROf_draw_8{44.34830718160721%{stroke-dashoffset: 149}48.92806098141972%{ stroke-dashoffset: 0;}100%{ stroke-dashoffset: 0;}}@keyframes syajHROf_draw_9{48.928060981419726%{stroke-dashoffset: 149}53.507814781232234%{ stroke-dashoffset: 0;}100%{ stroke-dashoffset: 0;}}@keyframes syajHROf_draw_10{53.507814781232234%{stroke-dashoffset: 71}55.69011357174691%{ stroke-dashoffset: 0;}100%{ stroke-dashoffset: 0;}}@keyframes syajHROf_draw_11{55.69011357174691%{stroke-dashoffset: 71}57.87241236226159%{ stroke-dashoffset: 0;}100%{ stroke-dashoffset: 0;}}@keyframes syajHROf_draw_12{57.87241236226159%{stroke-dashoffset: 144}62.29848314865757%{ stroke-dashoffset: 0;}100%{ stroke-dashoffset: 0;}}@keyframes syajHROf_draw_13{62.29848314865757%{stroke-dashoffset: 144}66.72455393505355%{ stroke-dashoffset: 0;}100%{ stroke-dashoffset: 0;}}@keyframes syajHROf_draw_14{66.72455393505355%{stroke-dashoffset: 77}69.09127234166807%{ stroke-dashoffset: 0;}100%{ stroke-dashoffset: 0;}}@keyframes syajHROf_draw_15{69.09127234166807%{stroke-dashoffset: 77}71.45799074828258%{ stroke-dashoffset: 0;}100%{ stroke-dashoffset: 0;}}@keyframes syajHROf_draw_16{71.4579907482826%{stroke-dashoffset: 32}72.44156203414838%{ stroke-dashoffset: 0;}100%{ stroke-dashoffset: 0;}}@keyframes syajHROf_draw_17{72.44156203414836%{stroke-dashoffset: 36}73.54807973074736%{ stroke-dashoffset: 0;}100%{ stroke-dashoffset: 0;}}@keyframes syajHROf_draw_18{73.54807973074736%{stroke-dashoffset: 21}74.19354838709677%{ stroke-dashoffset: 0;}100%{ stroke-dashoffset: 0;}}

.loading{animation:load_fade 3100ms linear 0ms infinite;}
@keyframes load_fade{0%{opacity:0;}50%{opacity:0;}90.3225806451613%{opacity:1;}100%{opacity:0;}}

</style></svg>
