<?xml version="1.0" encoding="utf-8"?>
<!-- Generator: Adobe Illustrator 22.0.0, SVG Export Plug-In . SVG Version: 6.00 Build 0)  -->
<svg version="1.1" id="Layer_1" xmlns="http://www.w3.org/2000/svg" xmlns:xlink="http://www.w3.org/1999/xlink" x="0px" y="0px"
	 viewBox="0 0 428.1 428.9" style="enable-background:new 0 0 428.1 428.9;" xml:space="preserve">
<style type="text/css">
	.st0{fill:#F43C05;}
	.st1{fill:#FAF9C9;}
	.st2{fill:#F83A06;}
	.st3{fill:#EE2700;}
	.st4{fill:#EB1906;}
	.st5{fill:#EF3701;}
	.st6{fill:#FEE310;}
	.st7{fill:#FEE313;}
	.st8{fill:#ED2603;}
	.st9{fill:#EE5802;}
	.st10{fill:#EF5A05;}
	.st11{fill:#ED3701;}
	.st12{fill:#EB1208;}
	.st13{fill:#F17C02;}
	.st14{fill:#FAA509;}
	.st15{fill:#FE6440;}
	.st16{fill:#EA3002;}
	.st17{fill:#F37C04;}
	.st18{fill:#F69B05;}
	.st19{fill:#F21C09;}
	.st20{fill:#EE1B0C;}
	.st21{fill:#FAB208;}
	.st22{fill:#F31B0F;}
	.st23{fill:#F43E18;}
	.st24{fill:#FD2820;}
	.st25{fill:#FD3831;}
	.st26{fill:#FAF6A9;}
	.st27{fill:#FE6843;}
	.st28{fill:#FE6E30;}
	.st29{fill:#FE642F;}
	.st30{fill:#FE7543;}
	.st31{fill:#FCFCDE;}
	.st32{fill:#FBF9B0;}
	.st33{fill:#FE5625;}
	.st34{fill:#F52A02;}
	.st35{fill:#FB3805;}
	.st36{fill:#FE5836;}
	.st37{fill:#FE5330;}
	.st38{fill:#FC8206;}
	.st39{fill:#FA5204;}
	.st40{fill:#FE6A1C;}
	.st41{fill:#FEEA66;}
	.st42{fill:#FCF693;}
	.st43{fill:#FDEF78;}
	.st44{fill:#FECC18;}
	.st45{fill:#FEBE13;}
	.st46{fill:#FED424;}
	.st47{fill:#FC9E06;}
	.st48{fill:#FCA209;}
	.st49{fill:#FEB50F;}
	.st50{fill:#FE9D47;}
	.st51{fill:#FE7345;}
	.st52{fill:#FE9339;}
	.st53{fill:#FE6931;}
	.st54{fill:#FEAA3E;}
	.st55{fill:#FE933A;}
	.st56{fill:#FE9816;}
	.st57{fill:#FEAC25;}
	.st58{fill:#FE4914;}
	.st59{fill:#FE663F;}
	.st60{fill:#FE8621;}
	.st61{fill:#FECE4F;}
	.st62{fill:#FEDD58;}
	.st63{fill:#FECD48;}
	.st64{fill:#FEE856;}
	.st65{fill:#FEE643;}
	.st66{fill:#FEC02E;}
	.st67{fill:#FEBC28;}
	.st68{fill:#FECD3B;}
	.st69{fill:#FEA02D;}
	.st70{fill:#FEB947;}
</style>
<g>
	<path class="st0" d="M194.2,82.9c2.9-9.4,2.1-19.2,2.8-28.8c5.6,0,1.7,4.7,3.3,6c1.7-5.2-4.8-12.1,2.2-17.3
		c5.6,2.2,5.3,7.6,6.4,12.1c4.3,17.1-0.6,33.2-6.5,48.9c-3.1,8.3-10.4,11.4-19,11.8c-5.6,0.3-11.8,0.1-13.8,7.4
		c-14.2,28.9-17.6,60.1-19.7,91.6c-1.9,27.5-11,35.9-39,35.6c-2.2-0.1-4.3-0.2-6.4-0.7c-11.7-5.1-22-11.6-23.1-26.2
		c0.9-2,2.3-3.4,4.5-3.9c2.8,3.9,5.2,8.1,8.4,11.5c5.5,5.7,12.3,8.2,20.3,6.1c8.3-2.3,12-8.4,12.9-16.4c1.1-9.6,1.5-19.2,2.3-28.8
		c2.1-23.9,10.5-45.8,21.2-67c6.1-10.6,12.6-18.6,27.1-19.5C188.6,104.7,193,93.4,194.2,82.9z"/>
	<path class="st1" d="M233.4,423.9c-5.6,4.6-12.3,1.4-18.4,2.6c0,0-0.4-0.5-0.4-0.5c-9.1-1.1-18.8-1.1-22.9-11.9
		c-4.5-7.6-10.2-14.2-15.6-21.1c-11.8-15.1-11.3-27,1.7-41.1c5.4-5.8,10.2-12,13.7-19.2c1.1-1.8,2.4-3.3,4.1-4.6
		c13.2-7.5,21.2-6.9,32.3,2.3c19.5,16.1,24.2,31.8,16.7,56c-1.7,5.4-4.4,10.6-3.8,16.5C241,410.7,232.4,415.7,233.4,423.9z"/>
	<path class="st2" d="M207,17.2c20.5,14.3,40.5,29.1,58.2,46.9c11.6,15.2,27.3,27.3,34.4,45.8c2.4,6.1,5.6,11.9,5.1,18.8
		c-3,8.6-3.4,18.7-12.7,23.9c-10.3-4.7-8.8-15-8.6-22.7c0.5-21.1-9.3-36.7-23-51.1c-15.4-16.3-32.9-30.1-49.1-45.4
		c-3.6-2.8-7.4-5.5-8.4-10.4C202.8,20.1,204.1,18.1,207,17.2z"/>
	<path class="st3" d="M349.7,331.6c-1.1,1.6-2.1,3.2-3.2,4.8c-6.7,0.1-7.6-5-8.1-9.7c-0.7-5.6-2-11.1-2.2-16.8
		c9.6-19.8,8.5-40.6,4.9-61.4c-2.4-13.8,5.9-25.3,6.3-38.4c0.5-1.5,1.3-2.6,2.6-3.5c2.5,0.2,3.9,1.9,4.7,4
		c7.4,18.9,10.8,38.7,13.2,58.8c0.5,4.5-0.9,8.9-3.4,12.5C354.1,296.8,354.4,314.9,349.7,331.6z"/>
	<path class="st4" d="M349.7,331.6c-0.5-15.7-1.5-31.2,8.7-45.2c7.9-10.8,7.9-23.2,4.5-36.2c-3.8-14.6-4.4-30.2-13.3-43.3
		c-1.5-1-1.7-2.7-2.4-4.2c-0.6,1.3-0.3,2.7-0.6,4c-0.7,3-2.2,5.4-4.1,7.8c-7.4,7.5-15.2,14-26.9,9.8c-4.5-5.4-12.2-9-10.8-18
		c1.3-0.9,2.5-0.8,3.7,0.3c17.3,15.1,26.9,9.6,36.8-22.7c13.8,24.8,20.2,50.2,23.9,76.5c3.4,24.3-0.3,46.8-14.6,67.1
		C353.3,329.2,351.3,330.2,349.7,331.6z"/>
	<path class="st5" d="M45.9,265.1c0.5-11.2,2.7-21.9,7.7-32c7.7-4.3,5.8-16.6,15.9-18.9c2.6,1.2,3.8,3.3,4.1,6.1
		c-0.2,4-1,7.9-1.9,11.7c-1.5,12.5-4.8,24.8-3.5,37.5c1.4,13.9,5.5,26.4,18.5,34c4.5,7.4,6.4,15.4,5.1,24c-10,4.3-14.2-4.8-20.5-9
		c-3.4-10.4-7.8-20.1-15.7-28.2C48.9,283.5,49.1,273.6,45.9,265.1z"/>
	<path class="st6" d="M187.9,425.7c-4.3,0.1-8.6,0.3-12.9,0.4c-0.9-0.6-1.7-1.2-2.6-1.8c-8.3-10.7-19.5-17.9-30-26
		c-1.9-1.8-3.2-4-3.6-6.7c0.4-7.9,2.5-15.2,8.6-20.9c3.8-1.8,5.7,0.9,7.8,3.1c1.2,1.3,2.4,2.6,3.6,4c3.3,3.4,5.7,7.5,8.8,11
		c6.8,7.5,13,15.6,18.3,24.2C188,416.7,192.5,420.6,187.9,425.7z"/>
	<path class="st7" d="M233.4,423.9c-2.7-0.6-6.9-0.3-4-5c2.9-4.7,6.2-9.1,9.3-13.6c1.3-3.9,3.9-6.9,6.4-10c2.9-4.4,6.3-8.3,9.6-12.4
		c1.7-2.4,2.5-5.4,4.2-7.9c1.7-2,3.9-3.2,6.6-3.3c6.2,1.5,12.8-0.7,18.8,2c2.1,2.9,2.2,6.1,1.6,9.5c-11.7,16.3-28.9,26.2-44.7,37.9
		C238.7,421.9,236,422.9,233.4,423.9z"/>
	<path class="st8" d="M45.9,265.1c6.5,13.9,14.8,26.7,23.7,39.1c2.7,3.8,3,8.9,2.6,13.7c3.8,7.3,5.4,13.9-5.6,16
		C51.8,313.4,41.8,291.4,45.9,265.1z"/>
	<path class="st9" d="M111.5,402.9c-6-2-11.3-5.3-15.8-9.8c-6.1-6.5-11.1-13.3-5.1-22.5c-0.6-2.6-1.3-5.2-1.9-7.8
		c1.4-6.7,4.9-12.1,10.2-16.4c3.7-0.1,5.3,2.8,7.4,5.2c3.3,4.9,7.2,9.4,8.4,15.4c-0.4,9.5-1.2,19,0.7,28.5
		C115.8,398.1,117.3,402.8,111.5,402.9z"/>
	<path class="st10" d="M328.4,357.7c-0.4,0.8-0.8,1.5-1.2,2.3c-2.9,4.5-10,8.4-6.2,14.2c3.1,4.9,9.6-0.7,16.3,0.8
		c-10.8,10.3-22.7,16.6-35,22.4c-6.7,0-3.3-4.6-2.8-7c1.7-8,3.9-15.8,3.2-24.1c0.1-1.3,0.4-2.5,0.9-3.7c7.6-6.2,8.6-18.7,20.2-21.1
		C328.5,345.9,329.2,351.6,328.4,357.7z"/>
	<path class="st11" d="M98.6,347c-1.4,6.5-5.1,11.4-9.9,15.7c-7.3-9.6-14.7-19.2-22-28.8c7.5-3.4,5.1-10.2,5.6-16
		c7.7,0.9,11.2,8.9,18.4,10.6C98,332.7,100.4,338.9,98.6,347z"/>
	<path class="st12" d="M308.5,206.6c-1.3,0.1-2.5,0.3-3.8,0.4c-8-6.1-6.6-14.6-5.3-22.7c2.9-18.8,4.2-37.6,2.6-56.6
		c-2.5-19.9-14-34.8-26.6-49.3c-3.8-4.4-11.2-6.5-10.3-14.3c36.5,28.9,52.7,65.6,43.2,112.3C306.4,186.4,306.8,196.6,308.5,206.6z"
		/>
	<path class="st13" d="M111.5,402.9c1.5-12.4-3.9-24.9,0.3-37.4c2.9-1.4,4.7,0.3,6.6,2.1c3.5,5.7,9.8,9.7,11.1,16.9
		c-0.2,7.9,1.9,15.1,5.1,22.3c0.9,2.1,4.9,6.7-2.2,6.7C124.8,411.3,117.7,407.9,111.5,402.9z"/>
	<path class="st14" d="M241.3,420.9c11.5-15.2,29-23.7,42.2-37c1-0.9,2.1-1,3.4-0.5c7.7,10.5-2.4,16.6-6,24.3
		C268.5,414.5,255.2,418.5,241.3,420.9z"/>
	<path class="st15" d="M77.9,127.9c1.6-1.7,3.2-3.5,4.8-5.2c7-4.8,11-3.8,10.1,5.5c-0.3,3.3-1.6,6.6-0.1,10c-0.7,4-1.4,7.9-4.6,10.8
		c-7.1,5.9-11,15.3-21,19.7c-3.7-12.4-0.2-22.5,5.9-32.1C74.8,133.7,78.7,132.1,77.9,127.9z"/>
	<path class="st16" d="M328.4,357.7c-3.8-4.7-3.3-10.8-5.3-16c-2.2-5.5,1-9.9,3.1-14.5c4.4-5.6,3.6-15.1,12.9-17.1
		c5.1,8-1.6,19.4,7.5,26.3C342.5,345.2,334.9,351,328.4,357.7z"/>
	<path class="st17" d="M280.9,407.8c-4.9-5.7,3.4-6.4,3.9-10.3c0.6-4.5,4-8.7,1.4-13.5c3.9-8.4,7.7-16.9,18.5-18.5
		c4.6,8.7-0.5,16.7-2,24.9c-0.4,2.3-3.2,4.5-0.4,7C296.3,403.4,288,404.4,280.9,407.8z"/>
	<path class="st18" d="M132.4,413.4c1.8-7.6-6-12.3-5.8-19.8c0.1-3.4-0.7-6.6,1.1-9.7c0.9-0.8,1.9-1.1,3.1-0.9
		c4.9,1.2,7.6,4.8,9.9,9c1,1.7,1.9,3.4,2.9,5.1c4.3,8.5,12.1,14.7,15.8,23.6c0.1,0.2-0.5,0.7-0.9,0.9c-0.6,0.4-1.4,0.3-2.3-0.2
		C147.7,420.6,139.7,418.2,132.4,413.4z"/>
	<path class="st19" d="M69.4,215c-4.2,6.7-8.1,13.8-12.9,20.1c-2.9,3.8-2.3-0.8-3-1.9c4.8-18.5,14.6-34.1,28.2-51.3
		c2.6,14.6,0.7,26.5,4.2,37.6c-1,1.1-2.1,2.3-3.1,3.4c-9.6-7.2-6.6-16.8-5.3-26.2C74.4,202.5,78.8,211.8,69.4,215z"/>
	<path class="st20" d="M194.2,82.9c1.8,11.5-6.3,26.2-16.3,26c-12.6-0.3-19.2,5.6-23.8,16c-0.7,1.6-2,1.1-3,0
		c1.8-5.3,3.7-10.6,5.5-15.8c1-2.9,2.3-5.9,6.2-5.2C180.2,107,188.2,96.5,194.2,82.9z"/>
	<path class="st21" d="M156.2,421.3c-3.2-8.6-14.5-13.1-12.6-24.3c11.4,7.2,24.7,12.4,28.8,27.2
		C166.9,423.9,161.2,424.6,156.2,421.3z"/>
	<path class="st22" d="M207,17.2c-1,1.6-1.9,3.2-2.9,4.8c-2.4,6.8,4,14.6-2.3,21c0,7,0,14.1,0,22.3c-4.5-3.8-1.2-8.8-4.8-11.3
		c-1.5-14.9-2.9-29.7-4.8-48C199,11.2,203,14.2,207,17.2z"/>
	<path class="st23" d="M90.6,370.6c-0.3,8,1.6,15.4,5.1,22.5c-12.6-7.9-23-18.3-35-30.2C72.7,363.6,80,373.9,90.6,370.6z"/>
	<path class="st24" d="M77.9,127.9c4.1,4.2-0.6,6-2.4,8.4c-6.5,8.7-9.4,18.2-8.3,29.3c10.6-1.9,11.2-14.8,20.9-16.6
		c-4.5,11.4-14.2,18.4-23.2,28.2C61.2,157.4,63.8,141.1,77.9,127.9z"/>
	<path class="st25" d="M92.7,138.2c-2.5-2.3-2.5-5.4-1.9-8.2c1.5-7.3-2.7-7.8-8-7.3c3.7-5.7,7.6-11.2,10-21.7
		C97.4,116.2,95.9,127.2,92.7,138.2z"/>
	<path class="st26" d="M187.9,425.7c-3.4-14.9-16-24.1-23.2-36.7c-9.1-24.8-3.3-45,17.1-59c4.3-2.9,8.7-5.9,14.4-4.7
		c1.7,1.9,1.5,3.8,0,5.8c-0.9,0.9-1.8,1.8-2.6,2.7c-3,5-8,8-12.2,11.8c-15.5,14-17,29.8-4.9,47.6c5,7.3,12,12.7,17.1,19.8
		c4.2,8.8,13,10.1,20.9,12.9C205.7,425.9,196.8,425.8,187.9,425.7z"/>
	<path class="st27" d="M201.8,43c2.8-6.8-6-14.8,2.3-21c1.8,3.6,4.5,6.2,8,8.1c10.7,14.1,25.2,24.5,37.4,37.1
		c7.1,7.4,13.3,15.2,16.3,25.2c3.4,14,5.5,27.9-3.3,40.9c-1.1,0.7-2.4,1.1-3.8,1c-9.7-5.5-11.6-16.9-18.4-24.7
		c-4.6-5.2-8.1-11.4-13-16.3c-3.3-3.3-6.5-7.6-12.2-4.1c-3.7,2.8-5.4,6.7-6.6,11c-5.2,17.1-21.2,26.6-39.8,23.7
		c-0.5-0.5-0.9-1-1.4-1.4c-0.8-7.6,1.8-10.8,10.2-10.8c20-0.1,19.5-0.7,25.5-20.3C207.9,74.9,208.5,59,201.8,43z"/>
	<path class="st28" d="M103.9,246.6c1.7,0,3.5,0.1,5.2,0.1c7.4,7.7,15.2,5.4,23.9,1.9c6.3-2.5,11.2-10.3,19.7-6.4
		c3.1,5.9-0.3,11.6-0.6,17.4c-2.8,12.4-9.2,22.3-20.1,29.1c-3.1,1.7-6.3,2.8-9.8,2.8c-2.1-0.1-4-0.7-5.7-1.9
		c-4.3-9.4-11.3-16-20.4-21c-9.3-5.1-16.4-12.9-22.6-21.3c-3.5-4.7-5.3-10-2.3-15.9c7.1-2.4,7,4.5,9.5,7.7
		C86.9,246.9,93.4,252.7,103.9,246.6z"/>
	<path class="st29" d="M151.4,241.3c-7.9,5.6-16.3,10.2-25.4,13.3c-8.3,2.9-14.6,1.8-16.8-8c30.5-0.1,34.4-4.2,37.2-35.1
		c2.4-26.8,3.8-53.8,15.3-78.9c1.6-3.5,2.2-7.5,5.5-10.1c0,0,0.3,0.1,0.3,0.1c5.5,9.8,1,19.7-0.6,29.2c-2.3,13.8-4.1,27.5-4.1,41.5
		C157.3,208.9,159.3,226.3,151.4,241.3z"/>
	<path class="st30" d="M103.9,246.6c-4.4,8-15.1,8.1-22.2-0.5c-3.8-4.6-6.3-10.2-9.4-15.4c-2.1-3.5-1.9-7-0.2-10.5
		c-0.9-1.7-1.8-3.5-2.6-5.2c1.7-3.6,3.7-7.1,4.9-10.8c1.2-3.6,1.1-7.8,5.2-11.3c-2.1,10.8-0.8,20.6,3.3,29.9
		C85.6,234.5,94.4,240.9,103.9,246.6z"/>
	<path class="st31" d="M233.2,377.5c-0.4,7.1-6.2,18.8-13.9,29.6c-4.4,6.2-10.2,7.3-17.3,3.6c-20.9-11.1-25.3-47.5-7.3-62.6
		c7.1-5.9,15-8.9,24.2-4.3C229.2,348.9,233.6,356.8,233.2,377.5z"/>
	<path class="st32" d="M196.3,331.1c0-1.7,0-3.5,0-5.2c1.5-13.8,8.6-18.5,20.8-13.9c29.4,11.1,44.8,44.8,33.5,74
		c-1.4,3.6-2.1,7.6-4.3,10.8c-1.8,3.5-4.1,6.5-7.7,8.4c-3.6-5-1.6-9.5,0.3-14.7c9.4-25.8,7.7-40.1-12.4-57.1
		C216.7,325,207.2,322.7,196.3,331.1z"/>
	<path class="st32" d="M193.7,413c-8.3-6.2-16.7-12.1-21.3-22.3c-11.1-24.6-7.2-38.6,15.9-53.2c1.8-1.2,3.6-2.5,5.4-3.7
		c-1.9,8-7.2,13.7-12.7,19.3c-13.6,13.9-13.7,24.8-1,39.8C185.3,399.1,191.5,404.7,193.7,413z"/>
	<path class="st33" d="M262.4,90.8c-8.7-19.3-26-31.3-39.7-46.3c-4-4.4-10-7.4-10.7-14.3c21.7,19.5,44.4,37.8,63,60.8
		c13.3,16.3,9.1,35.8,13.6,53.6c0.6,2.5,0.3,5.3,2.7,7c6.6,9.5,4.3,20.2,2.8,30.1c-1.7,11.1-1,21.3,3.2,31.6
		c-4.2,6.2-8,1.7-11.7-0.6c-9.1-5.6-12.8-15.2-17.4-24.1c-3.1-11-1.9-21.7,3.8-31.6c8.4-14.6,8.4-28.8-0.7-43.2
		C267.1,106.7,266.4,98.1,262.4,90.8z"/>
	<path class="st34" d="M296.5,214.9c-8.4-8.6-9.4-18.5-6.3-29.8c2.9-11,0.7-22.4,1.2-33.6c6-6.8,7.6-15.6,10.6-23.8
		c8.5,17.6,4.2,35.8,1.5,53.6c-1.3,9-1.3,17.2,1.1,25.7c2.3,6,10.3,8.3,10.6,15.7C306.5,226.1,300.5,223,296.5,214.9z"/>
	<path class="st35" d="M339,310c-3.5,6.2-6.9,12.3-10.4,18.5c-4.5-1.3-10.3,1.1-12.9-5.1c6.7-24.8,7.3-50.6,13.4-75.4
		c1.5-5.9,3.1-11.8,4.1-17.8c1.1-5.6,4.9-9.5,8.4-13.7c3.2-1.7,2.4-8,7.9-6.9c0.4,2.6,2,5.8,1,7.6c-9.3,16.5-4.3,33.7-3.7,50.8
		C347.3,282.5,349.2,297.5,339,310z"/>
	<path class="st36" d="M349.5,209.6c-1.7,2.7-3.5,5.4-5.2,8c-4.7,0.1-4.4-2.4-2.8-5.5c1-2.3,2-4.6,2.9-7c0.7-2,1.4-4.6,3.7-3.8
		c1.1,0.4,1.1,3.7,1.6,5.7C349.6,207.8,349.6,208.7,349.5,209.6z"/>
	<path class="st37" d="M341.5,212.1c0.1,2.3,0.6,4.3,2.8,5.5c-2.7,3.5-5.4,7-8,10.5c-8.9,8.6-15.7,19-23.9,28.2
		c-7.6,3.7-14.2,10.8-24,6.8c-4.6-7.5-4.5-15.8-0.3-22.6c6.3-10.1,2.5-16.3-5.2-22.5c-3.8-3-7.7-5.9-10.5-10c-3.9-6.2-8-12.4-2-19.7
		c8.2,9.3,12,23,26.1,26.4c5.7,3.8,11.7,7.1,18.7,7.7C326.4,225.1,334,218.7,341.5,212.1z"/>
	<path class="st38" d="M98.6,347c-2.6-6.2-5.3-12.3-8-18.5c-1.8-7.9-3.5-15.8-5.3-23.7c-6.8-9.1-7.4-19.2-4.9-29.8
		c2.6-5.4,6.7-6.9,11.3-3.1c6.2,5,13.5,9.2,16.2,17.6c-1.3,10.1,2.1,19.8,2.2,29.8c-0.6,11.3,3,23.4-6.3,33
		C102.1,350.5,100.3,348.8,98.6,347z"/>
	<path class="st39" d="M82.8,273c-0.6,10.7,0.3,21.3,2.5,31.7c-20.2-6.9-19.5-24.8-20.9-41c-1-11.2,1.7-22.3,5-33
		c1.7,10,5.2,19.2,10.5,27.9C82.6,262.9,86.4,267.3,82.8,273z"/>
	<path class="st40" d="M82.8,273c-5.2-13.9-14.9-26.3-13.3-42.3c0.4-3.6-1.1-7.7,2.6-10.5c0.1,3.5,0.1,7,0.2,10.5
		c-0.4,19,14.4,26.9,27.1,35.9c8.1,5.8,18.4,9.5,17.7,22.1c-3.5,3.1-7,3.1-10.5,0c-4.7-4.2-9.5-8.4-14.1-12.7
		C89.6,273.4,87.2,270.2,82.8,273z"/>
	<path class="st41" d="M265.2,373.5c-1.7,1-3.5,2-5.2,2.9c-1.8-1.6-2.1-3.8-1.8-6c3.9-32.3-15.9-51.3-38.6-68.5
		c-6.3-4.8-13.2-4.6-19.7-0.2c-22.8,15.4-37.3,36.4-42.4,63.7c-0.7,3.8,0.1,8-3.5,10.9c-1.8-1.8-3.5-3.6-5.3-5.4
		c-1.1-0.9-1.8-2-2.3-3.3c-2.4-14.2,4.5-26.1,9.6-38.4c0.5-1.3,1.1-2.4,1.9-3.6c0.8-1.1,1.7-2.1,2.7-3c5.7-7.7,9.4-16.6,15.6-24
		c18.5-22.3,40.2-23.8,60.6-3.5c4,4,8.5,7.5,12,12.1c11.6,19.4,24.4,38.3,18.8,62.8C267.1,371.3,266.3,372.5,265.2,373.5z"/>
	<path class="st42" d="M246.4,396.8c-0.3-6.2,0.9-12.1,3.1-17.9c11.3-29.4-15.6-58-37.5-65.6c-9.4-3.2-12.1,6.1-15.6,12.5
		c-15,5.9-24.7,16.8-31.8,31.2c-5.6,11.3,1.5,21.4,0.2,32c-2.7-3.4-5.5-6.8-8.2-10.2c-2.7-36.2,17.6-58.5,46-76
		c5-3.1,9.8-2.6,15-0.5c26.4,10.6,45.1,44.1,39.9,72.2c-0.6,3.1,0.4,6.2-0.6,9.1C253.4,388.1,249.9,392.5,246.4,396.8z"/>
	<path class="st43" d="M256.9,383.7c-4.7-9,1.3-17.8,0.5-26.9c-1.5-17.9-28.3-51.5-45.8-53.1c-9.8-0.9-18.3,7.2-24.5,13.2
		c-12.7,12.2-24.3,26.2-28.7,44.5c-1.4,5.9,3.4,12.3-1.8,17.6c-0.9-0.9-1.7-1.8-2.6-2.6c-1-34.4,17.9-57.6,43.3-77.1
		c7.8-6,16-6.1,24.2-0.2c18.5,13.2,33.3,29.4,39.9,51.8c2.6,8.7,0.4,17.3-1.4,25.8C259.7,379.2,260.2,382.2,256.9,383.7z"/>
	<path class="st44" d="M148.7,368.2c0,0.9,0,1.8,0,2.6c-3.5,6.7-6.4,13.7-8,21.1c-3.5-2.7-7-5.3-10.4-8c-6.8-15-4.7-30.4-2-45.8
		c2.9-4.4,6.3-3.3,9.9-0.9C145.5,346.2,144.7,358.1,148.7,368.2z"/>
	<path class="st45" d="M304.6,365.5c-6.2,6.2-12.3,12.3-18.5,18.5c-0.9,0-1.8,0-2.7,0c0-3.5,0-7,0-10.6c-0.5-10.4,4-19.7,6-29.6
		c2.9-6.4,5.2-13,8.8-19c1.9-3.1,4.4-7.7,8.6-1.7c2.2,13.5,4.3,27-2,40.1C304.8,363.9,304.7,364.7,304.6,365.5z"/>
	<path class="st46" d="M291.4,344.4c-0.8,10.2-2.3,20.2-7.9,29c-6.1,3.5-12.2,3.6-18.3,0.1c-0.1-0.9-0.1-1.7-0.1-2.6
		c4.4-7.6,4.1-16.8,8.5-24.4c3.6-5.1,5.1-12,12.5-13.5C290.8,335.4,292.6,339.2,291.4,344.4z"/>
	<path class="st47" d="M103.9,352.3c2.7-11.3,3-22.8,2.7-34.3c9.6-1.4,12.6,4.7,14.1,12.5c-0.7,12.7,3.9,25.9-3.7,37.8
		c-1.7-0.9-3.4-1.8-5.2-2.8C109.2,361.1,106.5,356.7,103.9,352.3z"/>
	<path class="st48" d="M304.8,363.1c-0.1-14.2-0.2-28.3-0.2-42.5c-1.6-1.5-1.6-3.2-0.7-5.1c8.6-2.6,9.7,5.8,14,9.5
		c3.3,1.8,9.5-5.3,10.6,3.4c-1.8,4.4-3.7,8.8-5.5,13.2C315.8,347.8,314.4,358.9,304.8,363.1z"/>
	<path class="st49" d="M117,368.3c0-13.2,0.1-26.5,0.1-39.7c2-1.5,0.6-4.9,3.3-6c5.7,0.4,8.8,4.2,11.3,8.7c0.5,2,0.2,3.7-1.3,5.2
		c0,15.8,0,31.7,0,47.5c-0.9,0-1.7,0-2.6,0C125.2,378,117.5,375.6,117,368.3z"/>
	<path class="st50" d="M214.7,85.5c5.3-5.7,8.6-0.6,11.8,2.6c12.9,13.1,23.4,27.9,30.7,44.9c0.2,0.4,0.6,1,0.4,1.2
		c-16.5,29.4-4.2,55.3,9.8,80.9c0.4,0.8,0.5,1.7,0.7,2.5c-0.8,14.5,2.5,28.3,8.5,41.4c-0.6,2.2-1.9,3.7-3.9,4.6
		c-13.9-2.7-23.1-13.4-24.1-28.3c-0.7-10.5,0.2-21-2-31.5c-3.3-15.8-13.5-22.6-29.4-18c-13.8,4-25.2,11.6-33.2,24.2
		c-3.7,5.8-5,14.6-14.3,15.6c-4.7-10-5.9-20.9-8.8-31.4c1.1-18.1,12.4-31.3,22-45.1c4.2-6.1,9.1-11.7,13.8-17.4
		c8.9-10.5,16-21.8,15-36.5C211.4,91.8,212.8,88.5,214.7,85.5z"/>
	<path class="st51" d="M214.7,85.5c5.4,26.7-11.4,44-26.3,62.2c-11.4,13.9-20.9,28.8-26.4,46.1c-0.8,1.2-1.7,1.3-2.6,0.1
		c-2-24.3,6-47.4,8.2-71.2c12.5,1.6,22.1-6,32.7-10.2c4-1.5,4-5.2,4-8.7C204.4,95.7,207.8,89.6,214.7,85.5z"/>
	<path class="st52" d="M265.1,217.6c-10.6-13.7-13.4-30.6-19-46.3c-5.1-14.5,4-26.5,11.1-38.3c0.9,0.1,1.7,0.1,2.6,0.1
		c8.9,8.7,10.7,19.6,9.9,31.4c-0.9,13.1-1.6,26.3,0.5,39.4C270.7,209.3,273.2,215.4,265.1,217.6z"/>
	<path class="st53" d="M267.7,204.4c0.3-24.1,1.4-48.3-8-71.3c8-13.6,5.4-27.9,2.7-42.3c7.8,10.5,12.4,22.8,18.2,34.4
		c4.3,8.7,2.3,16.8-1.7,24.9c-6,12.1-10.9,24.5-8.5,38.5c-1,6.9,0.4,13.2,5.1,18.5C271.6,210.1,269.7,207.2,267.7,204.4z"/>
	<path class="st54" d="M169.9,225.5c9.8-12.1,14.6-28.2,29.7-35.8c9-4.5,17.7-10.3,28.4-8.6c19.4,3.1,21.9,6.8,23.7,33.1
		c0.4,5.7,0.3,11.4,0,17.1c-0.8,15.8,7.6,25.2,21.2,31.2c6.6,9.8,17.6,17.8,13.8,32.1c-1.7,1.3-3.7,1.7-5.8,1.5
		c-17.8-16-33.6-33.2-35-58.9c-0.4-7.9,0.4-15.8-2.1-23.5c-4-12.2-11-17.5-23.6-16.3c-15.3,1.4-28.1,8.3-35.8,21.6
		c-5.3,9-10.6,18.3-14,28.3c-6.3,18.6-17.4,34.3-28.4,50.2c-2.9,2.1-5.9,3.8-9.6,2.2c-3.1-4.1-5.2-8.3-2.1-13.4
		c9.6-6.4,15.9-15.1,18.5-26.5C157.1,249.1,160.5,235.5,169.9,225.5z"/>
	<path class="st55" d="M169.9,225.5c-4.5,13-9,26-21.1,34.4c0.9-6.2,1.7-12.3,2.6-18.5c0.6-16.2,3-32.1,8-47.5c0.9,0,1.7,0,2.6-0.1
		C167.4,203.6,171.1,214,169.9,225.5z"/>
	<path class="st56" d="M119.7,323.2c-0.1,2.2-0.5,4.2-2.7,5.3c-0.1-7-6.1-8-10.5-10.6c1.2-9.7-7.2-19.4,0-29.1c3.5,0,7,0,10.5,0
		c1.8,0.1,3.6,0.2,5.3,0.2C125.2,300.7,125.3,312.2,119.7,323.2z"/>
	<path class="st57" d="M119.7,323.2c0.4-11.4-1.5-23,2.7-34.2c2.6-0.9,5.3-1.8,7.9-2.7c0.9,4.4,1.8,8.8,2.6,13.2
		c3.9,11,2.5,21.5-2.7,31.7C126.8,328.5,123.3,325.9,119.7,323.2z"/>
	<path class="st58" d="M318,325.1c-6.1-1.1-8.3-7.3-13.1-10c-2.4-2-2.5-4.6-2.2-7.4c0.7-3.3,1.7-6.5,2.7-9.7
		c6.2-13.9,5.6-28.9,7.2-43.5c5.9-10.6,10.9-22,23.8-26.4c-0.4,18-9.8,34.5-9.1,52.6C327.7,296.3,320.5,310.2,318,325.1z"/>
	<path class="st59" d="M267.7,204.4c2.6,0.9,5.2,1.8,7.9,2.6c1.6,4.6,6.6,5.4,9.7,8.4c7.9,7.6,17.3,14.2,5.4,26.6
		c-4.8,5-1.3,13.4-1.8,20.3c-0.8,1-1.9,1.7-3.2,2.1c-4.2,0.4-7.7-0.9-10-4.6c-11.3-12.1-11.6-27-10.7-42.1
		C269.4,213.9,267,208.8,267.7,204.4z"/>
	<path class="st60" d="M286.1,262.6c0.9-0.1,1.8-0.2,2.8-0.3c9.1,1.2,15.2-7,23.7-7.7c6,15.9,1.8,30.6-5.2,45
		C299.6,287.6,287.4,278.2,286.1,262.6z"/>
	<path class="st61" d="M162,325.8c-0.9,0-1.7,0-2.6,0c-7.7-11.4-3.7-23.3-0.7-34.8c2.8-10.5,8.9-19.7,14.5-29
		c12.9-12.7,22.8-27.9,35-41.1c3-3.2,6-6.6,9.8-8.7c7.2-4,12.1-1.3,12.5,6.8c0.2,3.1-0.7,6.1-1.2,9.1c-2,13.6,1.4,24.3,13,33.4
		c10.6,8.3,19.6,18.8,25.3,31.5c2.2,11.4,6.3,22.7,1.4,34.4c-8.1,3.3-6.5-4.6-9.1-7.8c-0.9-5.9-4-10.2-8.7-14
		c-12.5-10.1-25.6-19.7-32.6-35.2c-3.2-7.1-9.9-7.8-16.9-5.8c-8.3,2.4-16,6.3-19,14.8C177.1,295.5,166.7,309.4,162,325.8z"/>
	<path class="st62" d="M162,325.8c1.7-21.2,12-39.4,23.7-55.6c12.4-17.1,30-13.2,39.9,5.7c6,11.6,17.3,18.1,26.8,26.2
		c5,4.3,10.8,7.8,10,15.7c-7.1-0.8-11.3-5.9-15.8-10.5c-5.3-3.1-9.3-7.5-13.6-11.9c-16.3-16.8-39.6-14.6-53.9,4.8
		C172.9,308.5,167.6,317.3,162,325.8z"/>
	<path class="st63" d="M175.2,262.5c-0.4,5.1-3.5,8.8-6,12.9c-9.6,15.5-11.9,32.6-9.8,50.4c0,0.9,0,1.8-0.1,2.6
		c-3.9,4.3-6.2,12-14.6,7c-2.6-10.1-5.5-20.2-2.5-30.7c6.6-14.1,17.7-25.4,25.5-38.8C169.2,263.5,171.6,261.3,175.2,262.5z"/>
	<path class="st64" d="M246.5,307.4c6.1,2.3,12.2,4.5,15.8,10.5c1.8,3.5,3.5,7,5.3,10.6c7.3,4.2,11.7,9.6,8,18.5
		c-3.1,8.2-1.6,18.3-10.5,24C269.7,346.6,255.8,327.7,246.5,307.4z"/>
	<path class="st65" d="M146.2,336.4c4.4-2.6,8.8-5.3,13.1-7.9c-4.1,13.1-11.8,25.2-10.6,39.7c-6.6-8.6-8.7-18.8-10.4-29.1
		C140,335.5,142.4,333.8,146.2,336.4z"/>
	<path class="st66" d="M146.2,336.4c-2.6,0.9-5.3,1.8-7.9,2.7c-2.7-0.9-5.3-1.7-8-2.6c0-1.8,0-3.6,0-5.3
		c-0.5-10.7,0.2-21.2,2.7-31.7c2.6-0.9,5.3-1.8,7.9-2.7c4.6,0.8,3.1,5.6,5.3,7.9C140.4,315.3,148.9,325.8,146.2,336.4z"/>
	<path class="st67" d="M304.8,307.4c0,2.6,0,5.1,0.1,7.7c-0.1,1.8-0.1,3.7-0.2,5.5c-7,6.5-5.6,17.6-13.2,23.7
		c-1.8-3.5-3.5-7-5.3-10.6c-5.6-10.5-4.7-22.6-7.9-33.6c0.1-2.3,0.9-4.4,2.6-6c1.8,0,3.6,0,5.3,0
		C295.1,294.8,300.8,299.9,304.8,307.4z"/>
	<path class="st68" d="M280.9,299.5c3.7,11.1,6.6,22.4,5.3,34.3c-3.5,4.4-7,8.8-10.5,13.2c0.9-7.7-6-12-8-18.5
		c1.7-12.5-2.6-24.6-2.6-36.9C273.4,288,276.3,295.3,280.9,299.5z"/>
	<path class="st69" d="M304.8,307.4c-6.2-4.4-12.4-8.8-18.6-13.2c0.3-12.5-12.2-19.7-13.3-31.7c0.9-0.9,1.9-1.8,2.8-2.8
		c3.5,0.9,6.9,1.9,10.4,2.9c5.4,8.4,10.5,17.1,16.5,25.2c2.7,3.7,5.2,7,4.8,11.7C307.1,302.4,307.6,305.4,304.8,307.4z"/>
	<path class="st70" d="M280.9,299.5c-5.8-1.6-9.5-7.4-15.8-7.9c-10.8-10.7-18.8-23.9-31.4-33.3c-12.1-8.9-8.9-22.8-6.8-35.4
		c0.6-3.4,2.8-7.2-1.1-9.5c-3.9-2.3-6.3,1.4-8.9,3.6c-11.6,9.7-18.9,23-28.9,34c-3.8,4.2-8.4,7.7-12.6,11.5
		c-11.2,13-20.4,27.4-29.1,42.2c-1.8-2.6-3.5-5.3-5.3-7.9c15.1-26,27.4-53.4,40.8-80.3c6.9-13.9,21.3-20.7,36.8-22.5
		c19-2.2,32,8.2,30.1,28.8c-3,31,15.2,50.5,32.3,71.4C280.8,295.9,280.8,297.7,280.9,299.5z"/>
</g>
</svg>
