<?xml version="1.0" encoding="utf-8"?>
<!-- Generator: Adobe Illustrator 22.0.0, SVG Export Plug-In . SVG Version: 6.00 Build 0)  -->
<svg version="1.1" id="Layer_1" xmlns="http://www.w3.org/2000/svg" xmlns:xlink="http://www.w3.org/1999/xlink" x="0px" y="0px"
	 viewBox="0 0 562 562" style="enable-background:new 0 0 562 562;" xml:space="preserve">
<style type="text/css">
	.st0{fill:#FFFFFF;}
</style>
<g>
	<path class="st0" d="M226.1,296.5c-8.7,6.9-18.7,11.9-28.1,17.5c-26.8,16.1-54.2,31.1-83.8,41.7c-10.5,3.8-21.3,6.6-32.4,7.3
		c-23.6,1.5-32-15-28-35.5c6.1-30.5,24.1-54.7,41.3-79.3c17.4-24.6,37.9-46.5,59.9-67.1c19.6-18.3,40.5-35.1,62.4-50.7
		c26.3-18.9,53.9-35.8,82.6-51c24.1-12.9,48.7-24.8,74.9-33c11.9-3.8,24-6.9,36.8-5.4c13.4,1.6,19.7,8.3,20.8,21.7
		c0.6,8.8-2.1,17-4.5,25.3c-0.9,2.9-2.6,3.2-4.6,0.9c-17.5-19.1-39.4-18.2-61.4-12.3c-34.8,9.3-64.4,28.8-93.3,49.3
		c-25.8,18.4-50.4,38.8-73.5,60.6c-13.3,12.5-24.1,27-34.9,41.6c-12.2,16.3-23.6,33-30.5,52.4c-2.2,6.2-2.6,12.7-1.2,19
		c1.5,6.8,8.7,11.3,18.3,12c16.4,1.2,32.3-1.5,47.9-6.6c10.1-3.3,20.3-6.6,30.4-9.9C225.6,295.7,225.8,296,226.1,296.5z"/>
	<path class="st0" d="M117.6,508.5c37.8-22.8,74.1-46.3,109.4-71.5c37.1-26.5,73.2-54.3,104.8-87.3c16-16.7,31-34.3,39.2-56.4
		c3.6-9.5,5.1-19.3,2.3-29.2c-2.9-10.7-7-14.1-18.1-15c-18.6-1.6-36.1,3.1-53.2,9.2c-8.9,3.2-17.7,7.2-26.5,10.7
		c-2.1,0.8-4.1,2.5-6.9,1.2c19.5-13.3,39.2-26,59.7-37.4c23.5-13.2,47.5-25.6,73.5-32.9c6.5-1.8,12.9-3.2,19.6-3.5
		c22.3-1.1,33.2,9.7,32,32.2c-1.1,18.6-7.9,35.2-16.8,51.2c-17.5,30.9-41.6,56.1-68,79.3c-46.3,40.5-98,72.9-151.7,102.4
		c-28.8,15.9-58.1,30.4-87.7,44.5C125.7,507.4,122.6,509.7,117.6,508.5z"/>
	<path class="st0" d="M441.4,175.5c-10.9-0.7-24.6-3.3-35-14.4c-9.5-10.2-9-23.8,1.2-33.2c19.1-17.6,55.1-18,74.6-0.7
		c12.2,10.8,11.3,27.3-2.2,37.8C471.1,171.8,458.5,175.6,441.4,175.5z"/>
	<path class="st0" d="M297.5,63.6c-3.1,0-4.5-1.3-5.3-3.2c-3.8-8.3-7.5-16.7-11.4-24.9c-0.6-1.4-1.2-2.6,0.6-3.4
		c1.4-0.6,2.3,0.2,2.6,1.5c1.8,7.5,6,5.2,10.6,3.1c8.6-3.9,8.7-3.8,12.2,4.8c0.7,1.8,1.6,3.5,2.1,5.4c0.9,3.4,4.8,6.7,1.8,10.2
		C307.2,61.2,301.6,61.8,297.5,63.6z M299.1,38.2c-2.9,1.4-7,2.6-10.1,5.1c-1.3,1.1,1.5,4.3,2.3,6.7c0.6,1.4,1.3,2.8,1.8,4.3
		c1.6,5.3,4.3,7.5,9.4,3.6c1.8-1.4,6.2-0.8,5.1-4.3c-1.9-5.4-3.5-11-7.2-15.6C300.5,37.9,300.2,38,299.1,38.2z"/>
	<path class="st0" d="M348.2,413.9c-1.3,1.1-2.9,2-4.2,3.5c-1.4,1.8,0.7,2.7,1.4,3.9c1.6,2.3,3.5,4.7,5.3,7c0.7,0.9,1.6,2,0.2,2.9
		c-1.2,0.7-2.1,0-2.9-1.1c-1.8-2.6-3.9-4.9-5.5-7.5c-2.3-3.6-4-0.9-6,0.2c-2.6,1.4-2.3,2.9-0.7,5.1c3.2,4,6.1,8.1,9.2,12.1
		c0.7,0.9,2.2,2,0.5,3.4c-2,1.6-2.2-0.5-2.9-1.3c-3.8-4.9-7.4-10.1-11.2-15c-1.4-1.9-1.6-3.1,0.6-4.6c4.7-3.3,9.3-6.9,13.9-10.5
		c2.6-2,5.1-1.9,7.2,0.7c3.5,4.5,7,8.8,10.6,13.3c0.7,0.8,1.9,1.9,0.6,2.9c-1.5,1.4-2.5-0.1-3.3-1.2c-3.1-3.8-6-7.8-9-11.5
		C350.9,415.2,350.2,413.9,348.2,413.9z"/>
	<path class="st0" d="M372.1,9.4c4-0.1,5.9,0.7,6.6,3.2c1.6,6,3.2,12,4.8,18.1c0.6,2.1-0.1,3.2-2.5,3.6c-3.8,0.8-7.5,2-11.3,3.1
		c-3.8,1.1-6.1-0.4-7.3-3.9c-0.8-2.3-1.6-4.8-2.1-7.3c-0.8-4.1-4.9-9.7-2.5-11.9C361.8,11.1,368.2,10.7,372.1,9.4z M379.2,29
		c-0.8-2.9-1.8-6-2.6-8.9c-2.2-7.9-2.1-7.5-9.7-5.9c-5.2,1.2-6.2,3.3-4.1,7.8c0.6,1.2,0.7,2.6,1.2,3.9c2.7,9,5.3,10.1,13.6,5.8
		C378.6,31.2,379.6,30.6,379.2,29z"/>
	<path class="st0" d="M127.7,177.6c-0.9-1.3-1.8-2.3-2.7-3.3c-3.5-3.6-7.2-7.2-10.8-10.7c-0.9-0.9-2.1-2-0.7-3.4
		c0.7-0.7,1.6-1.1,2.5-0.1c4.8,5.2,11.2,9.2,14.3,16c1.1,2.2,0.7,3.5-0.8,5.2c-3.5,3.6-7,7.3-10.5,11c-2.8,3.3-6.1,3.4-9.2,0.8
		c-4.3-3.5-8.5-7.5-12.7-11.4c-1.1-0.9-2.1-2-0.7-3.4c1.4-1.4,2.5-0.1,3.5,0.7c3.8,3.4,7.6,6.7,11.3,10.3c2.2,2.3,3.6,2.1,5.5-0.4
		c1.5-2.1,4.7-3.6,0.8-6.3c-1.5-1.2-2.8-2.7-4.3-4c-1.1-0.9-2-2-0.9-3.4c1.4-1.6,2.3-0.2,3.3,0.7c1.5,1.4,3.1,3.1,4.7,4.5
		c0.9,0.8,1.9,2.5,3.4,1.2C125.3,180.6,126.3,179.2,127.7,177.6z"/>
	<path class="st0" d="M312.9,44.7c-0.4-3.9,1.2-5.4,3.3-6.2c2.7-1.1,5.4-2.1,8.2-3.1c2-0.7,3.4-1.5,2.1-4.2c-1.1-2-1.6-3.4-4.2-2
		c-1.2,0.7-2.6,1.1-3.9,1.2c-0.6,0.1-1.4-0.6-1.8-1.2c-0.4-0.7,0.1-1.5,0.9-1.8c2.7-1.1,5.4-2.1,8.2-3.2c1.3-0.5,2.1,0.1,2.6,1.4
		c2.2,6.2,4.7,12.3,6.7,18.7c0.8,2.5-0.8,4.5-3.3,5.5c-2.1,0.8-4.3,1.8-6.6,2.5c-2.7,0.9-6.2,3.9-7.9,2.1
		C314.7,51.6,313.9,47.1,312.9,44.7z M320.6,51c3.1-3.3,9.4-1.3,10.3-6.7c0.4-1.9-0.2-7-4-6.1c-3.6,0.9-9.2,0.7-10.2,5.6
		C316.4,45.7,317.6,49.2,320.6,51z"/>
	<path class="st0" d="M335.4,24.5c-1.3,0.6-2.3,0.7-2.8-0.8c-0.4-1.2,0-1.9,1.2-2.1c4.3-0.8,2.2-3.4,1.8-5.8
		c-0.4-1.6-2.7-3.9,0.5-4.8c2.3-0.7,2.7,1.9,2.9,3.4c0.6,4.8,3.3,4.8,6.8,3.2c1.4-0.6,2.9-1.1,4.3-1.5c0.9-0.2,2.1-0.1,2.5,0.8
		c0.7,1.5-0.8,1.8-1.6,2.3c-2.7,2-8.5-0.1-8.3,5.1c0,3.5,2.2,6.9,3.3,10.6c0.9,3.6,1.5,6.7,6.8,4.3c3.4-1.5,2.3-3.3,1.8-5.5
		c-0.4-1.3-1.1-2.9,0.7-3.5c2.2-0.8,2.3,1.3,2.8,2.7c0.9,2.6,2.1,5.5-0.5,7.6c-3.3,2.6-7.4,3.3-11.4,4.1c-1.3,0.2-1.2-1.8-1.5-2.8
		c-1.8-4.9-3.5-9.9-5.2-14.9C338.5,24.8,338.1,22.8,335.4,24.5z"/>
	<path class="st0" d="M64,261.7c-2.3,4.7-5.5,9.5-9,14.1c-0.5,0.6-1.4,0.5-2-0.2c-1.1-1.2-0.4-2.5,0.4-3.2c2.5-2.3,3.4-5.6,5.3-8.5
		c1.5-2.2,0.9-3.9-1.2-5.4c-2.3-1.8-3.9-0.9-5.2,1.3c-0.8,1.4-1.6,2.6-2.5,4c-4.2,6.6-7.6,7-13.6,1.9c-1.9-1.6-2.7-3.6-1.6-5.6
		c2.6-4.6,5.4-8.9,8.2-13.4c0.6-0.8,1.5-1.4,2.5-0.8c1.4,0.8,0.9,1.9,0.2,2.9c-2.1,3.3-4.1,6.6-6.3,9.9c-1.9,2.8-0.5,4,1.8,5.5
		c2.5,1.6,3.9,0.8,5.2-1.4c1.4-2.3,2.8-4.7,4.3-6.9c1.6-2.1,3.8-3.8,6.5-2.1C59.8,255.5,63.6,256.7,64,261.7z"/>
	<path class="st0" d="M393.2,404c-2.2-2.6-4.9-5.3-7.2-8.3c-1.4-1.9-0.8-4.1,0.9-5.8c2-1.9,4-3.8,6.1-5.4c1.8-1.4,2.5-2.7,0.6-4.7
		c-1.8-2-3.1-1.6-4.8-0.1c-1.2,0.9-2.5,3.6-4.1,1.6c-1.6-1.9,1.3-2.7,2.2-3.9c3.3-4.3,6.1-4,9.2,0.4c2.3,3.3,5.4,6.1,8.2,9
		c1.2,1.3,2.3,2.6,2.2,4.6C406.5,393.1,395.3,404,393.2,404z M394.2,399.5c1.5-0.1,9.6-8.1,9-8.7c-1.9-2.1-3.1-5.1-6.1-5.8
		c-0.9-0.2-8.8,7.6-8.5,8.3C390,395.9,391.7,398.2,394.2,399.5z"/>
	<path class="st0" d="M80.4,239.2c-3.1,4.2-6.1,8.3-9.2,12.3c-2.1,2.7-4.7,3.5-7.6,1.5c-4.3-2.9-8.6-6-12.9-9
		c-0.9-0.7-2.2-1.5-1.6-2.7c0.8-1.6,2.7-0.7,3.5-0.2c3.6,2.1,7.4,4.5,10.7,7c3.1,2.5,5.1,2.1,6.9-1.2c0.8-1.5,1.9-2.9,3.1-4.2
		c1.9-2,1.3-3.3-0.8-4.7c-2.2-1.5-4.3-3.3-6.6-4.8c-3.3-2.2-5.1-3.4-6.5-3.1c-1.4,0.2-2.6,2-4.9,5.4c-1.3,2-4,6.1-5.6,6.3
		c-0.2,0-0.7,0.1-0.9-0.2c-0.2-0.2-0.1-0.7,0-0.9c1.1-3.3,3.8-6.9,3.8-6.9c2.5-3.3,2.5-3.4,3.8-5.3c2.6-3.6,5.5-4,9-1.4
		C69.6,231.2,74.9,235.1,80.4,239.2z"/>
	<path class="st0" d="M251.4,87.2c-1.9,0.4-2.1-1.2-2.6-2.1c-2.9-5.1-5.8-10.2-8.6-15.3c-1.8-3.2-1.1-5.6,2-7.4
		c3.2-1.9,6.6-3.4,9.6-5.4c3.2-2.1,5.3-2,6.5,1.9c0.5,1.6,3.2,3.4,1.1,5.1c-2.7,1.9-2.8-1.5-3.9-2.8c-0.9-1.2-1.8-0.9-2.9-0.6
		c-9.7,3.3-10.5,4.9-5.6,13.7c4.8,8.8,4.8,8.7,13.6,4.1c2-1.1,4.9-4.5,6.2-1.9c1.8,3.3-2.9,3.5-4.9,4.8
		C258.5,83.5,254.8,85.3,251.4,87.2z"/>
	<path class="st0" d="M448.8,351.3c-4.2,4.2-7,9.2-11.9,11.7c-4.1,2.2-6.1-2.1-8.7-4.2c-0.7-0.6-1.4-1.4-2.1-2
		c-9.4-9.3-9.2-10.8,1.4-19.1c2.3-1.9,4.6-2.1,6.8,0c4.3,4,8.6,8,12.9,12C447.7,350.2,448.2,350.7,448.8,351.3z M431.2,339.4
		c-0.6,0.2-1.1,0.2-1.3,0.6c-2.5,2.5-5.6,4.7-7,7.8c-1.1,2.3,2.7,3.8,4.3,5.5c1.9,2,3.9,3.9,5.8,5.9c1.3,1.3,2.5,1.5,4.1,0.5
		c7.4-4.7,7.8-8,1.5-13.7c-1.8-1.6-3.4-3.3-5.2-4.8C432.6,340.3,431.7,339.9,431.2,339.4z"/>
	<path class="st0" d="M115,533.4c5.9,0.1,10.9,8.8,7.4,13.6c-2,2.7-1.3,3.2,1.1,4.2c1.3,0.6,3.5,1.2,2.5,3.2c-1.1,2-2.8,0.2-4.1-0.2
		c-1.4-0.5-2.8-1.4-4.2-1.9c-6-2.2-7.5-1.2-7,4.9c0.1,1.3,0.2,2.5-1.3,2.8c-1.4,0.4-2.1-0.7-2.5-1.9c-1.9-6.3-3.8-12.7-5.6-19
		c-0.6-1.9,0-2.9,1.9-3.5C107.1,534.6,110.8,532.9,115,533.4z M119.9,543.5c-1.9-2.5-0.4-7.6-4.7-7.2c-3.2,0.4-8.6-0.4-9.2,4.5
		c-0.4,2.5-0.4,7.6,4.1,7.4C113.4,547.9,117.9,547.8,119.9,543.5z"/>
	<path class="st0" d="M295.5,474.5c-0.1,3.1-7,8.8-9.3,8.1c-1.9-0.6-1.6-2-0.4-3.1c1.2-0.9,2.6-1.8,3.9-2.6c1.4-0.9,2.6-1.8,1.2-3.6
		c-1.1-1.4-2.1-2.3-3.9-1.3c-1.4,0.8-2.7,1.6-4,2.5c-7,4.2-13.5,1.1-14.6-7c-0.4-2.3,1.3-3.6,2.9-4.7c3.4-2.2,6.9-4.2,10.5-6.5
		c1.4-0.9,2.6-0.8,3.4,0.6c3.3,5.3,6.6,10.6,9.7,16C295.4,473.2,295.4,474.1,295.5,474.5z M287,466.7c-2-2.3-2.1-5.8-5.4-6.2
		c-2-0.2-8.9,5.8-8.5,7c0.9,2.1,1.5,5.9,4.3,5.3C281.1,472,284.3,469.7,287,466.7z"/>
	<path class="st0" d="M175,138.6c-4.3-0.5-16.1-11.7-16.9-16.2c-0.4-1.8,0.6-3.2,1.8-4.1c3.1-2.7,6.2-5.3,9.5-7.8
		c2.5-1.9,4.7-0.8,6.8,1.2c7.9,7.6,7.8,10.1-1.8,15.5c-1.6,0.9-2.7,2.2-3.6,3.6c-0.9,1.4,0.5,2.5,1.3,3.5c1.2,1.3,2.3,0.6,3.6-0.1
		c1.5-0.8,2.6-3.4,4.9-2c1.1,0.6,0.8,1.9,0.2,2.7C179.5,137.1,177.9,139.1,175,138.6z M167.4,129.9c2.3-3.6,5.3-5.5,8.1-7.5
		c1.5-1.1,2.9-2.5,0.8-4.1c-1.9-1.5-2.3-5.9-6-3.8c-2.8,1.6-5.9,3.6-7.5,6.3c-1.9,2.9,2.8,4.1,3.5,6.6
		C166.4,128.1,166.7,128.5,167.4,129.9z"/>
	<path class="st0" d="M424.5,374.5c-1.1,4.1-4.8,6.7-8.1,9.2c-2.1,1.5-3.2-2-4.6-3.4c-2.8-2.7-5.4-5.6-8.1-8.5
		c-1.5-1.6-2.8-3.8-5.4-0.8c-1.3,1.4-3.2-0.5-2.3-1.3c4.1-3.9,0.2-5.6-1.6-7.9c-0.7-0.9-1.9-1.8-0.9-2.9c1.1-1.2,2.3-0.2,2.9,0.7
		c3.5,5.6,6.8,3.8,10.1-0.2c0.9-1.1,2.2-2.9,3.8-1.2c1.2,1.4-0.7,2.3-1.5,3.2c-5.3,5.6-5.3,5.6,0.2,11.4c1.2,1.3,2.3,2.6,3.8,3.8
		c1.6,1.4,2.6,4.8,5.9,1.8c2.6-2.3,3.9-4.3,0.5-6.9c-1.1-0.8-2.2-2.2-0.7-3.4c1.4-1.2,2.3,0.6,3.3,1.5
		C422.7,370.8,424.2,371.9,424.5,374.5z"/>
	<path class="st0" d="M479.7,314.4c-0.1,2-9.3,13.9-10.7,14.1c-0.5,0.1-1.2-0.1-1.4-0.5c-0.8-0.9-0.2-1.8,0.5-2.5
		c2.1-2.6,4.2-5.2,6.5-7.5c1.9-2,2.3-3.5-0.1-5.8c-2.7-2.5-4.3-1.6-6.1,0.8c-0.8,1.1-1.8,2.1-2.6,3.2c-4.7,5.4-9.2,5.1-13-0.9
		c-0.9-1.4-1.5-3.1-0.5-4.3c2.9-3.9,6-7.6,9-11.4c0.6-0.7,1.3-0.8,2-0.4c0.9,0.7,1.1,1.4,0.2,2.3c-2.2,2.7-4.3,5.5-6.8,8.1
		c-2.1,2.2-2,3.6,0.5,5.6c2.2,1.9,3.8,2.2,5.6-0.4c1.4-2.1,3.2-4,4.9-5.9c1.5-1.6,3.4-2.9,5.6-1.5
		C476,309.6,479.1,311.1,479.7,314.4z"/>
	<path class="st0" d="M230.5,73c-2.7,1.8-6.5,3.4-8.9,6.1c-1.9,2,1.3,4.1,2.3,6c2.2,3.9,4.7,7.6,7,11.5c0.7,1.1,1.3,2-0.1,2.9
		c-1.3,0.9-2.1,0.2-2.8-0.8c-3.4-5.5-7.9-10.6-10-16.4c-2.9-8,5.9-8.1,9.7-11.3c2.9-2.3,6.2-2.5,8.5,1.2c2.9,4.8,5.8,9.7,8.5,14.7
		c0.6,1.2,2.5,2.8,0.1,3.9c-2,0.9-2.6-1.2-3.4-2.5c-2.5-4.2-4.9-8.5-7.5-12.6C233.5,74.5,233,73,230.5,73z"/>
	<path class="st0" d="M359.4,389.3c0.8,0.7,1.6,1.3,2.1,2.1c2.7,4.7,5.5,4.3,8.8,0.7c1.1-1.1,2.5-3.6,4.1-1.9c1.9,2-0.9,3.1-2.1,3.8
		c-5.3,3.1-4.3,6.2-0.6,9.7c1.6,1.6,3.1,3.5,4.6,5.3c1.5,1.8,2.6,4.5,5.8,1.5c2.3-2.2,3.8-3.8,0.9-6.5c-0.8-0.8-2.6-1.9-0.9-3.3
		c1.5-1.3,2.3,0.4,3.3,1.3c3.9,3.8,3.8,6.3-0.5,10.1c-5.9,5.2-5.9,5.2-10.9-1.1c-1.9-2.2-3.8-4.6-5.6-6.8c-1.6-1.9-2.9-5.2-6.1-1.8
		c-0.5,0.5-1.5,0.6-1.9-0.5c-0.2-0.5-0.4-1.4-0.1-1.5c4.5-3.1,0.7-5.1-0.9-7.3c-0.7-0.9-1.8-1.8-1.2-3.1
		C358.2,389.9,358.8,389.7,359.4,389.3z"/>
	<path class="st0" d="M285.7,65.2c-2.8-6-5.4-11-7.6-16.2c-0.6-1.4-3.2-3.4,0-4.7c2.7-1.1,2.5,1.9,3.1,3.2
		c2.7,5.4,5.2,10.9,7.9,16.3c1.2,2.3,1.1,3.5-1.6,4.8c-17.4,8.3-14.4,8.7-22.7-6.9c-0.9-1.8-1.6-3.5-2.6-5.3c-0.7-1.4-1.9-3.1-0.1-4
		c2-1.2,2.5,0.9,3.2,2.2c2.1,4.2,4.5,8.2,6.2,12.6c1.5,3.6,3.4,4.1,6.6,2.1C280.6,67.8,283.3,66.6,285.7,65.2z"/>
	<path class="st0" d="M137.5,151c-3.2-3.9-5.6-5.5-8.6-1.2c-0.7,1.1-2.3,1.9-3.5,0.5c-0.9-1.2,0.4-2.1,1.1-2.9
		c0.7-0.7,1.5-1.3,2.1-2.1c3.3-4.7,6.1-3.6,9.2,0.4c2.6,3.3,5.6,6.3,8.6,9.4c3.4,3.4,3.5,6.7-0.1,10.1c-2,1.9-4.2,3.5-6,5.6
		c-2.8,3.3-4.7,3.6-8,0c-7.5-8.2-7.8-8.1,0.4-15.5C134.2,153.6,136,152.3,137.5,151z M144.9,159.7c-1.2-2.1-2.8-4.3-5.4-5.4
		c-1.2-0.5-8.8,6.8-8.5,8.2c0.7,2.9,2.9,4.8,5.5,6.1C137.4,169.1,144.9,161.1,144.9,159.7z"/>
	<path class="st0" d="M159.9,507.7c1.6-0.2,2,1.4,2.5,2.6c3.3,8,6.5,15.9,9.6,23.8c0.6,1.4,0.5,3.3-0.8,4.3
		c-4.5,3.8-10.1,4.7-15.4,6.6c-1.5,0.5-1.6-1.3-2.1-2.3c-2.1-5.2-4.3-10.3-6.1-15.6c-1.4-4,1.1-6.6,4.5-7.5
		c5.4-1.5,10.6-2.7,6.6-10.1C157.8,508.1,158.5,507.7,159.9,507.7z M168.6,535c-1.3-2.8-2.6-5.3-3.6-8c-2.8-7.8-2.7-7.5-10.1-5.1
		c-3.8,1.3-4.5,2.9-2.8,6.3c1.4,3.1,2.5,6.2,3.6,9.3c0.6,1.6,1.2,3.6,3.6,2.6C162.5,538.7,166.6,538.7,168.6,535z"/>
	<path class="st0" d="M181.7,535.1c-3.4,0-5.2-1.1-6-3.3c-1.8-4.6-3.5-9-5.3-13.6c-1.3-3.4-0.6-6,3.4-7.2c1.3-0.4,2.6-1.1,3.9-1.4
		c2.9-0.6,5.4-4.7,8.3-2.5c3.6,2.7,4.6,7.6,6.3,11.6c0.6,1.2-0.6,1.5-1.6,2.2c-3.2,1.9-6.6,3.2-10,4.7c-1.4,0.6-3.2,1.1-2,3.3
		c0.8,1.5,1.6,2.7,3.5,2.1c0.9-0.2,1.8-0.7,2.7-0.9c1.1-0.2,2.5-0.7,3.1,0.7c0.5,1.3-0.7,2.1-1.8,2.6
		C184.4,534.1,182.5,534.7,181.7,535.1z M178.4,523c2.3-2.7,8.1-0.9,8.6-6c0.1-2-0.6-6.3-4.3-5.4c-3.3,0.7-7.8,1.2-8.6,5.3
		C173.7,518.5,174.6,522.3,178.4,523z"/>
	<path class="st0" d="M102.7,196.2c7.2,1.9,8.2,4,5.3,8.2c-0.2,0.4-0.5,0.6-0.7,0.9c-7.2,8.1-4.8,7.8-12.6,1.2
		c-2.5-2.1-4.9-4.3-7.6-6.3c-1.4-1.1-2.5-2.8-5.1-1.6c-1.9,0.9-3.2,0.2-2.1-2.7c1.1-2.8-2.8-3.2-4.1-5.1c-0.7-1.2-2-2.1-0.6-3.5
		c1.2-1.1,2.3-0.5,3.1,0.5c4.6,5.8,7.5,2.5,10.6-1.6c0.8-1.1,1.9-3.3,3.6-2c2,1.5,0,3.1-0.9,4.3c-4.7,6.2-4.7,6.2,1.2,11.4
		c1.1,0.9,2,2.1,3.2,2.6c2.1,0.9,2.8,5.2,6.5,2.7C106,202.9,106,200.2,102.7,196.2z"/>
	<path class="st0" d="M213,83.3c-0.8,0.7-1.5,1.6-2.6,2.1c-5.1,2-3.5,4.7-1.2,7.9c1.5,2,2.9,4.1,4.1,6.3c2,3.5,4.1,5.6,7.9,2
		c0.8-0.8,2.3-1.3,3.2-0.2c1.3,1.6-0.4,2.5-1.4,3.2c-4,2.7-8.1,5.4-12.2,8.1c-0.9,0.6-1.8,1.6-2.9,0.2c-1.4-1.6-0.1-2.6,1.1-3.1
		c5.6-2.2,4.1-5.3,1.3-8.7c-1.4-1.6-2.6-3.4-3.6-5.3c-2-3.9-4.2-6.6-8.5-2.2c-0.9,0.9-2.5,1.6-3.5,0.1c-0.8-1.3,0.6-2.1,1.5-2.7
		c4.3-2.9,8.8-5.8,13.2-8.8C211.1,81,212.1,81.3,213,83.3z"/>
	<path class="st0" d="M135.6,552.2c-3.4,0.5-4.9-1.1-5.8-3.2c-0.9-2.3-1.6-4.8-2.3-7.2c-4.3-13.4-4.3-12,9.6-16.9
		c3.5-1.2,5.5,0.2,6.9,3.3c4.5,9.6,4.6,9.6-5.6,13.3c-1.4,0.6-2.9,1.2-4.3,1.6c-1.9,0.6-1.9,1.8-1.2,3.2c0.6,1.2,0.8,2.8,2.7,2.2
		c1.3-0.4,2.6-0.8,3.9-1.2c1.1-0.2,2.1-0.2,2.6,0.7c0.7,1.5-0.6,2.1-1.6,2.6C138.5,551.4,136.7,551.9,135.6,552.2z M138.1,528.2
		c-2.8,2.5-8.5,0.6-9,5.6c-0.2,1.8-0.1,6.3,3.8,5.5c3.4-0.7,8.3-0.4,9.3-4.9C142.4,532.6,141.6,529,138.1,528.2z"/>
	<path class="st0" d="M464.9,332.9c-0.4,0.7-0.6,1.4-1.1,1.6c-1.1,0.5-1.9-0.2-2.6-0.9c-3.6-3.3-7.4-6.3-10.8-9.7
		c-3.5-3.5-5.5-1.2-7.3,1.5c-1.6,2.5-6.7,4.2-1.8,8.2c3.8,3.1,7.3,6.6,10.8,9.9c0.9,0.8,2.6,1.6,0.9,3.3c-1.3,1.4-2,0-2.8-0.7
		c-4.3-4-8.7-7.8-12.9-11.9c-2.9-2.8-1.8-5.9,0.9-8c3.6-2.7,5.1-10.6,11.7-6.3c4.9,3.1,8.9,7.5,13.3,11.4
		C463.9,331.8,464.4,332.3,464.9,332.9z"/>
	<path class="st0" d="M219.6,493.5c-0.4-2.5,1.8-3.5,2.9-4.2c2.9-1.9,6.1-3.4,9.3-4.8c2.9-1.3,5.4-0.2,6.9,2.5
		c2.6,4.8,5.1,9.6,7.6,14.4c0.6,1.2,1.5,2.7,0,3.6c-1.9,1.1-2.8-0.7-3.5-2.1c-1.9-3.6-4-7.2-5.5-10.9c-1.9-4.6-4.3-4.3-8.1-2.3
		c-3.5,1.9-6,3.3-3.3,7.8c2.5,4,4.1,8.3,6.2,12.6c0.6,1.2,0.6,2.2-0.8,2.9c-0.8,0.4-1.5,0.4-2-0.4
		C226.1,506.2,222.8,499.8,219.6,493.5z"/>
	<path class="st0" d="M275.3,488.1c-0.1,0.9-0.4,1.6-1.3,1.8c-1.4,0.1-2.1-0.7-2.7-1.8c-2.2-3.9-4.3-7.9-6.6-11.7
		c-1.3-2.2-2.6-5.5-6-2.3c-2.3,2.2-9.2,1.8-5.1,8.2c2.5,3.9,4.6,8.1,6.8,12.2c0.7,1.3,1.3,2.5-0.4,3.4c-1.9,1.1-2.3-0.7-2.9-1.8
		c-2.8-5.1-5.6-10.2-8.3-15.4c-1.1-2.1-0.8-4.5,1.2-5.8c3.4-2.2,6.9-4.2,10.7-6c1.9-0.9,4-0.1,5.1,1.8c3.1,5.2,6.1,10.5,9,15.6
		C275,487,275.2,487.6,275.3,488.1z"/>
	<path class="st0" d="M192.1,508.5c-0.4-3.8,0.7-5.6,2.8-6.7c3.5-1.8,7-3.2,10.7-4.7c1.1-0.5,2.3-1.1,3.1,0.2
		c1.1,1.8-0.4,2.5-1.5,3.1c-2.5,1.2-4.8,2.6-7.4,3.4c-3.6,1.2-4.1,3.1-2.8,6.6c1.5,4,3.8,2.9,6.3,1.8c0.7-0.4,1.4-0.7,2.1-0.9
		c1.5-0.6,3.4-2.3,4.5,0c1.3,2.7-1.6,2.6-3.1,3.1c-4.8,1.6-7.5,4-4,9.2c0.7,1.1,0.7,2.3-0.8,2.9c-1.1,0.5-2,0-2.5-0.9
		C196.8,519.3,194.2,513.4,192.1,508.5z"/>
	<path class="st0" d="M77,205.8c-2.2,2.9-4.3,6-6.7,8.7c-2.5,2.8-2.7,4.8,0.7,7.5c3.6,2.8,5.1,0.9,6.9-1.6c0.1-0.1,0.2-0.4,0.4-0.5
		c1.5-1.4,2.6-5.4,4.9-3.5c2.7,2.1-0.7,4.5-2.2,6.1c-1.8,2-2.6,3.2-2.3,4.2c0.4,2.1,5.3,5.4,5.6,6c0.7,1.2,0.6,1.6,0.5,1.9
		c-0.4,0.5-1.8,0.2-2.5-0.2c-1.5-1.1-10.5-6.6-17.2-12.3c-0.8-0.7-1.9-2.9-0.8-4.9c2.7-4.8,6.3-8.8,10-12.9c0.6-0.6,1.4-0.8,2.1-0.1
		C76.6,204.4,76.6,205.1,77,205.8z"/>
	<path class="st0" d="M387.1,12.4c1.3,5.3,2.5,10.7,3.9,16c0.4,1.4,0.9,2.8-0.9,3.4c-2.1,0.7-2.1-1.2-2.5-2.3
		c-1.5-5.6-2.9-11.4-4.2-17c-0.9-3.9,0.9-6,4.5-6.8c3.4-0.8,6.8-1.5,10.3-2.3c4.5-1.1,7,1.2,6.3,5.5c-0.1,0.7-0.6,1.4-1.2,1.8
		c-0.6,0.4-1.8,0.6-2-0.4c-1.6-6.9-6-2.5-9.2-2.1C390,8.4,385.9,7.7,387.1,12.4z"/>
	<path class="st0" d="M306.6,441.1c0.6,0.7,1.3,1.5,2,2.5c2.6,3.9,5.4,7.6,7.9,11.6c1.6,2.6,3.2,2.9,5.6,1.1c2.7-2.1,5.6-4.1,8.6-6
		c0.7-0.5,1.4-1.5,2.5-0.2c1.1,1.3,0.6,2-0.8,2.7c-0.4,0.1-0.6,0.6-0.9,0.7c-4.7,2.3-8.7,9.3-14,6.7c-6.2-2.9-8.3-10.8-12.5-16.4
		C304.3,442.6,304.5,441.2,306.6,441.1z"/>
	<path class="st0" d="M152.5,124.4c1.9,0.7,2.8,2.3,3.2,3.9c0.4,1.3-0.6,2.2-2.5,2.1c-4.9-0.4-6.8,4.3-9.9,6.8
		c-1.5,1.2,0.2,2.8,1.3,4c3.2,3.6,6.6,7.3,9.7,10.9c0.9,1.2,2.5,2.5,0.9,4c-1.4,1.4-2.6-0.2-3.3-1.2c-4-4.2-7.9-8.7-11.7-13
		c-2.3-2.6-1.6-5.2,0.5-7.3c3.3-3.3,6.9-6.2,10.5-9.3C151.5,124.9,151.9,124.7,152.5,124.4z"/>
	<path class="st0" d="M370.8,422.4c-0.4,0.8-0.6,1.6-0.8,1.8c-0.7,0.1-1.8,0.1-2.1-0.2c-4.6-5.5-9-11.2-13.6-16.7
		c-0.6-0.7-0.6-1.4,0.1-2c0.4-0.4,1.3-0.6,1.4-0.5C360.9,410.6,365.8,416.4,370.8,422.4z"/>
	<path class="st0" d="M339.8,446.8c-0.4,0.4-0.7,0.9-1.2,0.9c-0.7,0-1.6-0.1-2-0.6c-4.1-5.6-8.2-11.3-12.2-16.9
		c-0.7-0.9-0.7-1.8,0.4-2.5c0.7-0.5,1.5-0.4,2,0.4c4.2,5.8,8.5,11.6,12.6,17.4C339.5,445.8,339.6,446.3,339.8,446.8z"/>
	<path class="st0" d="M243.3,479.4c3.4,6.2,6.7,12.5,10.1,18.8c0.6,1.1,1.2,2.1-0.1,3.1c-0.9,0.7-2,0.6-2.5-0.4
		c-3.2-6.8-8.8-12.7-8.9-20.7C242.4,479.9,242.9,479.6,243.3,479.4z"/>
	<path class="st0" d="M414.2,351.8c5.8,5.6,11.4,11.2,16.9,16.8c0.1,0.1-0.5,1.3-0.7,1.3c-0.7,0.1-1.6,0.1-2.1-0.4
		c-5.1-4.8-10-9.7-14.9-14.8C412,353.5,413.1,352.4,414.2,351.8z"/>
	<path class="st0" d="M214,493.5c1.2-0.1,1.8,0.8,2.1,1.6c2.6,5.2,5.2,10.5,7.6,15.6c0.6,1.3,0.7,2.9-0.6,3.6
		c-1.9,0.9-2.1-1.2-2.7-2.2c-2.6-5.1-5.1-10.1-7.4-15.2C212.7,495.9,211.3,494.1,214,493.5z"/>
</g>
</svg>
